<svg xmlns="http://www.w3.org/2000/svg" width="17.5" height="21.5" viewBox="0 0 17.5 21.5"><defs><style>.a,.b{fill:none;stroke:#2161a9;stroke-linecap:round;stroke-linejoin:round;stroke-width:1.5px;}.b{fill-rule:evenodd;}</style></defs><g transform="translate(-418.25 -1460.25)"><path class="a" d="M14,5h4a2,2,0,0,1,2,2V20a2,2,0,0,1-2,2H6a2,2,0,0,1-2-2V7A2,2,0,0,1,6,5h4" transform="translate(415 1459)"/><path class="a" d="M13.591,10.659a2.25,2.25,0,1,1-3.182,0,2.25,2.25,0,0,1,3.182,0" transform="translate(415 1459)"/><path class="a" d="M15.6,19a3.17,3.17,0,0,0-.792-1.154h0A3.173,3.173,0,0,0,12.646,17H11.354a3.173,3.173,0,0,0-2.157.846h0A3.17,3.17,0,0,0,8.405,19" transform="translate(415 1459)"/><path class="b" d="M13,7H11a1,1,0,0,1-1-1V3a1,1,0,0,1,1-1h2a1,1,0,0,1,1,1V6A1,1,0,0,1,13,7Z" transform="translate(415 1459)"/></g></svg>