<svg xmlns="http://www.w3.org/2000/svg" width="23.357" height="18.5" viewBox="0 0 23.357 18.5"><defs><style>.a{fill:none;stroke:#1c529b;stroke-linecap:round;stroke-linejoin:round;stroke-width:1.5px;}</style></defs><g transform="translate(-1401.297 -8179.945)"><path class="a" d="M1402.047,8182.859h0a2.164,2.164,0,0,0,.95,1.791l7.263,4.923a4.86,4.86,0,0,0,5.449,0l7.246-4.911a2.164,2.164,0,0,0,.95-1.791v-.012a2.165,2.165,0,0,0-2.164-2.164h-17.53A2.165,2.165,0,0,0,1402.047,8182.859Z" transform="translate(0)"/><g transform="translate(1402.047 8183.124)"><path class="a" d="M1402.047,8182.695v12.144a2.429,2.429,0,0,0,2.429,2.428h17a2.429,2.429,0,0,0,2.429-2.428v-12.144" transform="translate(-1402.047 -8182.695)"/></g><path class="a" d="M1402.633,8195.425l7.456-7.456" transform="translate(0.126 1.559)"/><path class="a" d="M1413.328,8187.977l7.443,7.443" transform="translate(2.417 1.56)"/></g></svg>