<svg xmlns="http://www.w3.org/2000/svg" width="116.351" height="116.351" viewBox="0 0 116.351 116.351"><defs><style>.a{fill:none;stroke:#1c529b;stroke-linecap:round;stroke-linejoin:round;stroke-width:6px;}</style></defs><g transform="translate(3.072 3)"><path class="a" d="M1058.288,10314.188a84.236,84.236,0,0,1-17.576-25.379,4.989,4.989,0,0,1,1.106-5.512l5.457-5.451c4.471-4.471,4.464-10.8.566-14.706l-7.822-7.813a13.324,13.324,0,0,0-18.843,0l-4.344,4.347a21.268,21.268,0,0,0-5.663,19.117c3.292,17.4,13.406,36.47,29.723,52.8s35.38,26.429,52.79,29.716a21.263,21.263,0,0,0,19.122-5.668l4.345-4.332a13.327,13.327,0,0,0,0-18.846l-7.823-7.822a9.989,9.989,0,0,0-14.132,0l-6.023,6.022a4.984,4.984,0,0,1-5.5,1.1A84.184,84.184,0,0,1,1058.288,10314.188Z" transform="translate(-1010.772 -10251.424)"/></g></svg>