<?xml version="1.0" encoding="UTF-8"?> <svg xmlns="http://www.w3.org/2000/svg" width="494" height="541" viewBox="0 0 494 541"><g id="Grupo_1437" data-name="Grupo 1437" transform="translate(-1051 -1114)"><text id="Andalucia" transform="translate(1053 1114)" fill="#2860ad" font-size="20" font-family="Montserrat-Bold, Montserrat" font-weight="700"><tspan x="0" y="19">Andalucia</tspan></text><text id="País_Vasco" data-name="País Vasco" transform="translate(1302 1114)" fill="#2860ad" font-size="20" font-family="Montserrat-Bold, Montserrat" font-weight="700"><tspan x="0" y="19">País Vasco</tspan></text><text id="Almería_Granada_Jaén_Málaga_Huelva_Cádiz_Córdoba_Sevilla" data-name="Almería Granada Jaén Málaga Huelva Cádiz Córdoba Sevilla" transform="translate(1073 1159)" fill="#2860ad" font-size="15" font-family="Montserrat-Regular, Montserrat"><tspan x="0" y="15">Almería</tspan><tspan x="0" y="40">Granada</tspan><tspan x="0" y="65">Jaén</tspan><tspan x="0" y="90">Málaga</tspan><tspan x="0" y="115">Huelva</tspan><tspan x="0" y="140">Cádiz</tspan><tspan x="0" y="165">Córdoba</tspan><tspan x="0" y="190">Sevilla</tspan></text><text id="Badajoz_Cáceres" data-name="Badajoz Cáceres" transform="translate(1073 1420)" fill="#2860ad" font-size="15" font-family="Montserrat-Regular, Montserrat"><tspan x="0" y="15">Badajoz</tspan><tspan x="0" y="40">Cáceres</tspan></text><text id="Las_Palmas_Tenerife" data-name="Las Palmas Tenerife" transform="translate(1073 1572)" fill="#2860ad" font-size="15" font-family="Montserrat-Regular, Montserrat"><tspan x="0" y="15">Las Palmas</tspan><tspan x="0" y="40">Tenerife</tspan></text><text id="Albacete_Cuenca_Ciudad_Real_Toledo" data-name="Albacete Cuenca Ciudad Real Toledo" transform="translate(1322 1292)" fill="#2860ad" font-size="15" font-family="Montserrat-Regular, Montserrat"><tspan x="0" y="15">Albacete</tspan><tspan x="0" y="40">Cuenca</tspan><tspan x="0" y="65">Ciudad Real</tspan><tspan x="0" y="90">Toledo</tspan></text><text id="Castellón_Alicante_Valencia" data-name="Castellón Alicante Valencia" transform="translate(1322 1498)" fill="#2860ad" font-size="15" font-family="Montserrat-Regular, Montserrat"><tspan x="0" y="15">Castellón</tspan><tspan x="0" y="40">Alicante</tspan><tspan x="0" y="65">Valencia</tspan></text><text id="Extremadura" transform="translate(1051 1394)" fill="#2860ad" font-size="20" font-family="Montserrat-Bold, Montserrat" font-weight="700"><tspan x="0" y="0">Extremadura</tspan></text><text id="Islas_Canarias" data-name="Islas Canarias" transform="translate(1051 1546)" fill="#2860ad" font-size="20" font-family="Montserrat-Bold, Montserrat" font-weight="700"><tspan x="0" y="0">Islas Canarias</tspan></text><text id="Islas_Baleares" data-name="Islas Baleares" transform="translate(1071 1504)" fill="#2860ad" font-size="20" font-family="Montserrat-Bold, Montserrat" font-weight="700"><tspan x="0" y="0">Islas Baleares</tspan></text><text id="Región_de_Murcia" data-name="Región de Murcia" transform="translate(1320 1218)" fill="#2860ad" font-size="20" font-family="Montserrat-Bold, Montserrat" font-weight="700"><tspan x="0" y="0">Región de Murcia</tspan></text><text id="Castilla_La_Mancha" data-name="Castilla La Mancha" transform="translate(1302 1266)" fill="#2860ad" font-size="20" font-family="Montserrat-Bold, Montserrat" font-weight="700"><tspan x="0" y="0">Castilla La Mancha</tspan></text><text id="Comunidad_Valenciana" data-name="Comunidad Valenciana" transform="translate(1302 1472)" fill="#2860ad" font-size="20" font-family="Montserrat-Bold, Montserrat" font-weight="700"><tspan x="0" y="0">Comunidad Valenciana</tspan></text><text id="Cantabria" transform="translate(1324 1427)" fill="#2860ad" font-size="20" font-family="Montserrat-Bold, Montserrat" font-weight="700"><tspan x="0" y="0">Cantabria</tspan></text><text id="Madrid" transform="translate(1324 1607)" fill="#2860ad" font-size="20" font-family="Montserrat-Bold, Montserrat" font-weight="700"><tspan x="0" y="0">Madrid</tspan></text><text id="Tarragona" transform="translate(1324 1650)" fill="#2860ad" font-size="20" font-family="Montserrat-Bold, Montserrat" font-weight="700"><tspan x="0" y="0">Tarragona</tspan></text><circle id="Elipse_342" data-name="Elipse 342" cx="8" cy="8" r="8" transform="translate(1053 1161)" fill="#0a942f"></circle><circle id="Elipse_357" data-name="Elipse 357" cx="8" cy="8" r="8" transform="translate(1302 1204)" fill="#0a942f"></circle><circle id="Elipse_358" data-name="Elipse 358" cx="8" cy="8" r="8" transform="translate(1302 1295)" fill="#0a942f"></circle><circle id="Elipse_359" data-name="Elipse 359" cx="8" cy="8" r="8" transform="translate(1302 1318)" fill="#0a942f"></circle><circle id="Elipse_360" data-name="Elipse 360" cx="8" cy="8" r="8" transform="translate(1302 1343)" fill="#0a942f"></circle><circle id="Elipse_361" data-name="Elipse 361" cx="8" cy="8" r="8" transform="translate(1302 1368)" fill="#0a942f"></circle><circle id="Elipse_362" data-name="Elipse 362" cx="8" cy="8" r="8" transform="translate(1302 1411)" fill="#0a942f"></circle><circle id="Elipse_363" data-name="Elipse 363" cx="8" cy="8" r="8" transform="translate(1302 1499)" fill="#0a942f"></circle><circle id="Elipse_364" data-name="Elipse 364" cx="8" cy="8" r="8" transform="translate(1302 1524)" fill="#0a942f"></circle><circle id="Elipse_365" data-name="Elipse 365" cx="8" cy="8" r="8" transform="translate(1302 1549)" fill="#0a942f"></circle><circle id="Elipse_366" data-name="Elipse 366" cx="8" cy="8" r="8" transform="translate(1302 1592)" fill="#0a942f"></circle><circle id="Elipse_367" data-name="Elipse 367" cx="8" cy="8" r="8" transform="translate(1302 1635)" fill="#0a942f"></circle><circle id="Elipse_343" data-name="Elipse 343" cx="8" cy="8" r="8" transform="translate(1053 1186)" fill="#0a942f"></circle><circle id="Elipse_344" data-name="Elipse 344" cx="8" cy="8" r="8" transform="translate(1053 1211)" fill="#0a942f"></circle><circle id="Elipse_345" data-name="Elipse 345" cx="8" cy="8" r="8" transform="translate(1053 1234)" fill="#0a942f"></circle><circle id="Elipse_346" data-name="Elipse 346" cx="8" cy="8" r="8" transform="translate(1053 1259)" fill="#0a942f"></circle><circle id="Elipse_347" data-name="Elipse 347" cx="8" cy="8" r="8" transform="translate(1053 1285)" fill="#0a942f"></circle><circle id="Elipse_348" data-name="Elipse 348" cx="8" cy="8" r="8" transform="translate(1053 1310)" fill="#0a942f"></circle><circle id="Elipse_349" data-name="Elipse 349" cx="8" cy="8" r="8" transform="translate(1053 1335)" fill="#0a942f"></circle><circle id="Elipse_350" data-name="Elipse 350" cx="8" cy="8" r="8" transform="translate(1053 1422)" fill="#0a942f"></circle><circle id="Elipse_352" data-name="Elipse 352" cx="8" cy="8" r="8" transform="translate(1053 1489)" fill="#0a942f"></circle><circle id="Elipse_353" data-name="Elipse 353" cx="8" cy="8" r="8" transform="translate(1053 1574)" fill="#0a942f"></circle><circle id="Elipse_354" data-name="Elipse 354" cx="8" cy="8" r="8" transform="translate(1053 1599)" fill="#0a942f"></circle><circle id="Elipse_351" data-name="Elipse 351" cx="8" cy="8" r="8" transform="translate(1053 1447)" fill="#0a942f"></circle><text id="_1" data-name="1" transform="translate(1061 1173)" fill="#fff" font-size="10" font-family="Karla" font-weight="700"><tspan x="-1.783" y="0">1</tspan></text><text id="_15" data-name="15" transform="translate(1310 1216)" fill="#fff" font-size="10" font-family="Karla" font-weight="700"><tspan x="-4.693" y="0">15</tspan></text><text id="_16" data-name="16" transform="translate(1310 1307)" fill="#fff" font-size="10" font-family="Karla" font-weight="700"><tspan x="-4.817" y="0">16</tspan></text><text id="_17" data-name="17" transform="translate(1310 1330)" fill="#fff" font-size="10" font-family="Karla" font-weight="700"><tspan x="-4.271" y="0">17</tspan></text><text id="_18" data-name="18" transform="translate(1310 1355)" fill="#fff" font-size="10" font-family="Karla" font-weight="700"><tspan x="-5.015" y="0">18</tspan></text><text id="_19" data-name="19" transform="translate(1310 1380)" fill="#fff" font-size="10" font-family="Karla" font-weight="700"><tspan x="-4.833" y="0">19</tspan></text><text id="_20" data-name="20" transform="translate(1310 1423)" fill="#fff" font-size="10" font-family="Karla" font-weight="700"><tspan x="-6.188" y="0">20</tspan></text><text id="_21" data-name="21" transform="translate(1310 1511)" fill="#fff" font-size="10" font-family="Karla" font-weight="700"><tspan x="-4.809" y="0">21</tspan></text><text id="_22" data-name="22" transform="translate(1310 1536)" fill="#fff" font-size="10" font-family="Karla" font-weight="700"><tspan x="-6.051" y="0">22</tspan></text><text id="_23" data-name="23" transform="translate(1310 1561)" fill="#fff" font-size="10" font-family="Karla" font-weight="700"><tspan x="-6.135" y="0">23</tspan></text><text id="_24" data-name="24" transform="translate(1310 1604)" fill="#fff" font-size="10" font-family="Karla" font-weight="700"><tspan x="-6.001" y="0">24</tspan></text><text id="_25" data-name="25" transform="translate(1310 1647)" fill="#fff" font-size="10" font-family="Karla" font-weight="700"><tspan x="-5.936" y="0">25</tspan></text><text id="_2" data-name="2" transform="translate(1061 1197)" fill="#fff" font-size="10" font-family="Karla" font-weight="700"><tspan x="-3.026" y="0">2</tspan></text><text id="_3" data-name="3" transform="translate(1061 1222)" fill="#fff" font-size="10" font-family="Karla" font-weight="700"><tspan x="-3.11" y="0">3</tspan></text><text id="_4" data-name="4" transform="translate(1061 1245)" fill="#fff" font-size="10" font-family="Karla" font-weight="700"><tspan x="-2.975" y="0">4</tspan></text><text id="_5" data-name="5" transform="translate(1061 1270)" fill="#fff" font-size="10" font-family="Karla" font-weight="700"><tspan x="-2.91" y="0">5</tspan></text><text id="_6" data-name="6" transform="translate(1061 1296)" fill="#fff" font-size="10" font-family="Karla" font-weight="700"><tspan x="-3.034" y="0">6</tspan></text><text id="_7" data-name="7" transform="translate(1061 1321)" fill="#fff" font-size="10" font-family="Karla" font-weight="700"><tspan x="-2.488" y="0">7</tspan></text><text id="_8" data-name="8" transform="translate(1061 1347)" fill="#fff" font-size="10" font-family="Karla" font-weight="700"><tspan x="-3.232" y="0">8</tspan></text><text id="_9" data-name="9" transform="translate(1061 1434)" fill="#fff" font-size="10" font-family="Karla" font-weight="700"><tspan x="-3.05" y="0">9</tspan></text><text id="_11" data-name="11" transform="translate(1061 1501)" fill="#fff" font-size="10" font-family="Karla" font-weight="700"><tspan x="-3.566" y="0">11</tspan></text><text id="_12" data-name="12" transform="translate(1061 1586)" fill="#fff" font-size="10" font-family="Karla" font-weight="700"><tspan x="-4.809" y="0">12</tspan></text><text id="_13" data-name="13" transform="translate(1061 1611)" fill="#fff" font-size="10" font-family="Karla" font-weight="700"><tspan x="-4.893" y="0">13</tspan></text><text id="_10" data-name="10" transform="translate(1061 1459)" fill="#fff" font-size="10" font-family="Karla" font-weight="700" letter-spacing="-0.05em"><tspan x="-4.696" y="0">10</tspan></text><text id="Vizcaya" transform="translate(1322 1159)" fill="#2860ad" font-size="15" font-family="Montserrat-Regular, Montserrat"><tspan x="0" y="15">Vizcaya</tspan></text><circle id="Elipse_434" data-name="Elipse 434" cx="8" cy="8" r="8" transform="translate(1302 1161)" fill="#0a942f"></circle><text id="_14" data-name="14" transform="translate(1310 1173)" fill="#fff" font-size="10" font-family="Karla" font-weight="700"><tspan x="-4.758" y="0">14</tspan></text></g></svg> 