<?xml version="1.0" encoding="UTF-8"?> <svg xmlns="http://www.w3.org/2000/svg" width="632.096" height="532.865" viewBox="0 0 632.096 532.865"><g id="Grupo_1436" data-name="Grupo 1436" transform="translate(-368.404 -1086.635)"><g id="Grupo_1184" data-name="Grupo 1184" transform="translate(-429.236 990.36)"><g id="Grupo_1183" data-name="Grupo 1183" transform="translate(1201.919 557.404)"><path id="Trazado_9247" data-name="Trazado 9247" d="M758.676,439.179l4.618-2.415.066-.271.962-1.772-.015-.147-.583-1.451-1.232-.065-1.719.888-.174.032-.972.106-3-.372-1.82.587-.588.418-.9.391-.044.046-.057-.029-1.015.316-.964.956-.338.944h0l-1.139,1.081-.016.019-.516.6-.175.213-2.075,1.618-.188-.015-1.881.855-.541.276-.168.053-.577.113-.376.017-.933.024-.561-.031-2.535.572-2.868.541-.374.036-.8.032-.054-.026-1.033-.155-1.656-.263-1.257.608-.8.321-.358.068-.562.365-.037.154.039.514.782.773.136.063.522.517.052.157.19.173h0l.347.6.044.109.878,1.755.078,1.283.178.562.917,1.311.179.108h0l.873,1.4.037.186.178.375h0l1.817,2.238.42.572h0l.528.906.7,1,.613,2,.21.358.382.172,2.23-.519,1.275-.62h0l1.707-.5,1.833-.647,1.517-1.807.793-1.1.909-1.272.021-.02,1.063-.952h0l.226-.742.517-1.925h0l.03-.123.73-1.884.047-.164.5-.973.358-.722h0l.589-.922h0l-.017-1.435-.072-.41,1.2-2.081h0l2.387-2.246.4-.406.9-.9Z" transform="translate(-681.722 -401.563)" fill="#2860ad"></path><path id="Trazado_9248" data-name="Trazado 9248" d="M814.422,436.932l.026-.464-.02-.9h0l-.518-5.064-.388-.749-.054-.051-.715-.684-.364-.539h0l-3.127.169-2.235,1.092-.9,1.541-.445,2.175-.212.592-.345,1.987-.363.433-2.251,3.88h0l-.382.784-.6,1.01-1.673,3.511-.3.758-.194.16-.124.56-.7,1.079-.855,1.9-.031.166-.147,2.477-.072.309-.516.739-.006.009-1.1,1.337,2.465.491,1.348-.177.669.068-.009-1.026,1.427-.676,4.016-1.611,6.973-7,.272-.37.094.053-.094-.053,0-1.287,0-1.3.742-2.43.59-2.05.127-.838Z" transform="translate(-632.077 -404.988)" fill="#2860ad"></path><path id="Trazado_9249" data-name="Trazado 9249" d="M776.135,456.113l.213-.93.027-2.395-.285-1.157L774.8,448.4l-.418-1.437.549-1.908-.833-.9-.761.365.009.357.143.568-.029.369-2.558,0-1.207-.36-2.527.15-2.99-.768-.928-.145-.56-.008-.951.2-.05-.015-.353,3-1.656,2.533-.837.7-1.022.681-.942.555-.152,1.56-.187,2.376.157.917.595,1.28.35.77.038.109h0l.492,1.012.785.57h0l.7.548.415.736,1.128.746,1.858,1.5.184.031,1.682.143.743.22,2.858-.661,2.906-1.087,1.323-.323h0l.737-.4,2.605-3.129.217-.577-.463-.72.277-1.857Z" transform="translate(-661.441 -393.265)" fill="#2860ad"></path><path id="Trazado_9250" data-name="Trazado 9250" d="M811.041,431.726h0l.57-.715,2.078-.574.172.05,1.116.012.545-.212,1.686-1.135.536-.362,1.7-.2,1.288-.983h0l.574-.335.507-.365.177-.186.783-1.292h0l.044-.174.359-2.256h0l.111-.2h0l.111-1.086-.213-.749-.012-.775h0l.13-.367.82-.674.13-.068.389-1.126h0l.067-.538h0l-.254-1.461-1.112-.92v0l-1.733.8-.462,1.068h0l-.035.142-.351.937h0l-.6,1.676h0l-1.76.549-1.375-.372-.416.191-.7.372-.186.014-2.054.908-.239.38h0l-2,.765-.845.024-.965.35-.112.109.215.067-1.615,1.505-.154.2-.76,1.111-.4,1.091,0,1.93.037.068-.043.063-.032.746-1.292,1.647-.383.4.944,1.666,1.68.046.961.143.524.225.544-.063,1.3-2.076Z" transform="translate(-625.142 -415.038)" fill="#2860ad"></path><path id="Trazado_9251" data-name="Trazado 9251" d="M706.255,437.41l.7,1.369,1.036,2.282.393,1.512,1.186,1.06.567.08.136-.019.975-1.1.738-1.516.253-.715,1.419-2.658.033-.149.012-1.115-.236-.928-.2-.539h0l.22-2.076.515-.766h0l.519-.573h0l.271-.9-.969-1.1-.34-.937-.935-2.058-.378-.345-1.2-.376,0,0-.637.166-3.2-.184-.36-.039-.51.051h0l-.216.193h0l-.385.166-.095,0-.4.1-.3.435.013,0,.583.761-2.183,1.715-.645-.038.034-.155-.1.038-.439.556.178.843.029.024,1.085.929,1.466,3.178.2.423,1.162,2.417Z" transform="translate(-702.13 -407.008)" fill="#2860ad"></path><path id="Trazado_9252" data-name="Trazado 9252" d="M724.725,443.932l-2.686,1.448-2.427,2.42-.073,1.355.118.794,2.444,2.192,1.488-.147.377-.041,1.841-.249h0l.3-.15,1.384-1.1.733-.812.076-.1.7-.946.04-.183-.009-1.3-.045-.184-1.163-1.289-.5-.22h0l-.213-.109-.563-.358-.925-.632-.9-.386Z" transform="translate(-689.111 -393.432)" fill="#2860ad"></path></g><path id="Trazado_9253" data-name="Trazado 9253" d="M1072.555,293.386c-.219-.18-.671-.339-.435-.71.192-.3.589-.238.914-.073a1.9,1.9,0,0,0-.045-.512c.135-.533.641-.771.94-1.173a24.311,24.311,0,0,1,1.765-2.026,1.968,1.968,0,0,1,.7-.505c.343-.079.624-.329.988-.351a1.191,1.191,0,0,0,1.25-.454,2.188,2.188,0,0,1,1.276-.6c-.162-.149-.374-.238-.4-.47.075-.419.405-.591.736-.764.688-.08,1-.662,1.438-1.082.089-.019-.026-.028.061-.023a6.759,6.759,0,0,0,3.686-1.1.4.4,0,0,1,.13-.01c.867.129.867.131,1.082-.713a.416.416,0,0,1,.177-.065,1.653,1.653,0,0,0,1.757-.837c.143-.252.428-.392.633-.6a5.008,5.008,0,0,1,1.419-.372,3.5,3.5,0,0,1,.661-.054,11.878,11.878,0,0,0,2.929-.47c.545-.128,1.089-.253,1.627-.4a12.653,12.653,0,0,0,1.386-.53,7.422,7.422,0,0,0,.979-.418c.339-.087.635-.332,1.012-.269.077.047-.014-.026.061.024a1.141,1.141,0,0,0,.255.161c-.07-.066-.171-.117-.133-.243a.814.814,0,0,1,.454-.346.885.885,0,0,1,.383-.035c.454.281.82-.2,1.246-.147-.026-.094-.163-.089-.178-.194.007-.117.075-.163.183-.161.369-.15.577.016.7.35a1.172,1.172,0,0,0,.4,1.253c-.224.357-.638.425-.959.633-.378.177-.778.285-1.167.428a2.02,2.02,0,0,0-1.07.834,3.081,3.081,0,0,1-.308.35,1.889,1.889,0,0,1-.444.336.79.79,0,0,1-.7.024c-.229-.093-.386-.037-.449.215a1.026,1.026,0,0,0-.049.332c-.061,1.344-.061,1.344,1.265,1.549a2.486,2.486,0,0,0,1.55-.22,2.784,2.784,0,0,1,.9-.18l1.265.456c.049-.278.177-.5.488-.2.135.313-.08.638.039.951a.789.789,0,0,1-.021.287,3.493,3.493,0,0,1-.285.6,1.679,1.679,0,0,1-.311.348,4.442,4.442,0,0,1-.727.425,1.155,1.155,0,0,1-.547.154.319.319,0,0,1-.3-.192l-.2.183a.409.409,0,0,1-.25.253c-.142.051-.292.075-.433.128-.056.025-.112.044-.168.063a.953.953,0,0,0-.591.65,3.987,3.987,0,0,0,.779,3.116,6,6,0,0,0,1.092,1.1c.175.108.358.2.528.322a2.777,2.777,0,0,0,.461.259c.115.052.226.107.337.168a4.611,4.611,0,0,0,1.987.577c.332.009.664-.01,1,0s.687,0,1.031,0a7.02,7.02,0,0,0,2.162-.136,2.388,2.388,0,0,0,.909-.666,11.34,11.34,0,0,0,.939-1.031.861.861,0,0,1,.292-.269c.545-.246,1.092-.479,1.625.024l.386.082a2.565,2.565,0,0,1,1.29.542,9.692,9.692,0,0,0,2.491,1.351c.066.012.129.03.194.047a3.209,3.209,0,0,0,.895.075.75.75,0,0,1,.39.119.3.3,0,0,1,.089.271,1.208,1.208,0,0,0-.154,1.323.57.57,0,0,1,.035.18,1.944,1.944,0,0,0-.357,1.636c.141.69.454,1.384.005,2.076a9.2,9.2,0,0,1-.98,2.09,2.753,2.753,0,0,1-1.038.725,2.4,2.4,0,0,0-.759.334,2.16,2.16,0,0,0-.5,2.319c.1.337.178.661-.117.944-.063.072-.131.138-.2.2-.482.468-.951.953-1.473,1.377-.374.227-.542.654-.874.919a.884.884,0,0,1-.17.08c-.239.054-.383,0-.325-.28a3.044,3.044,0,0,0-.528,1.435,26.3,26.3,0,0,0-2.307,4.359c-.088.559-.183,1.117-.234,1.681-.141.669-.2,1.349-.294,2.026a.478.478,0,0,1-.1.175c-.767-.217-.96.262-1.091.869-.075.35-.224.683-.3,1.038a2.369,2.369,0,0,1-.311.834.714.714,0,0,1-.51.3l-.68.905a.509.509,0,0,1-.362.315c-.213.03-.339-.211-.559-.182-.019.166.238.287.082.472a.306.306,0,0,1-.152.1c-.231-.045-.4-.024-.307.285-.231.456-.759.563-1.089.872a5.649,5.649,0,0,1-1.828,1.218,3.826,3.826,0,0,0-1.171.661,9.156,9.156,0,0,0-1.108.925,5.674,5.674,0,0,0-1.421,1.454,1.682,1.682,0,0,1-.337.453,2.178,2.178,0,0,1-.984.537.546.546,0,0,1-.351-.133,7.422,7.422,0,0,1-.874-1.216,5.532,5.532,0,0,0-.666-1,2.492,2.492,0,0,0-.87-.606,1.723,1.723,0,0,1-1.036-1.222,6.594,6.594,0,0,1-.19-.881c-.024-.225-.038-.5-.248-.6-.652-.3-1.173-.82-1.835-1.092a1.633,1.633,0,0,0-1.231.178,4.677,4.677,0,0,1-1.667.164l-.419,0a14.471,14.471,0,0,0-1.886-.138,11.194,11.194,0,0,1-2.141-.292,3.566,3.566,0,0,1-1.042-.549c-.073-.592.233-1.138.212-1.727l-.484-.9c-.225.082-.363-.122-.488-.278a7.5,7.5,0,0,1-.563-.668,1.823,1.823,0,0,0-1.154-.837,5.987,5.987,0,0,1-.342-1.264.834.834,0,0,0-.428-.638c-.192-.119-.37-.255-.348-.521.065-.29.039-.594.112-.883.082-.239.2-.47.278-.713.088-.2.187-.388.278-.582a3.126,3.126,0,0,0,.145-.336,2.165,2.165,0,0,0-.661-1.744c-.173-.2-.379-.376-.57-.563a7.931,7.931,0,0,0-3.3-2.041,2.077,2.077,0,0,0-1.568.168,15.855,15.855,0,0,0-1.57.786l-.217.164a5.245,5.245,0,0,1-.7.4,9.619,9.619,0,0,0-1.012.53,3.081,3.081,0,0,0-.437.414,2.317,2.317,0,0,0-.489.809c-.1.287-.192.575-.285.863-.052.149-.084.3-.126.454a.667.667,0,0,1-.344.449,5,5,0,0,0-.579.07c-.175.059.067-.533-.161-.087a.529.529,0,0,1-.4.232c-.542.1-.781.33-.423.867a.2.2,0,0,1-.047.3,1.473,1.473,0,0,1-1.252.126,1.075,1.075,0,0,1-.416-.825,2.1,2.1,0,0,0-.091-1.215,1.317,1.317,0,0,1,.056-.849,1.161,1.161,0,0,0-.145-1.022c-.044-.065-.033.1-.094.126a.221.221,0,0,1-.163.058,2.747,2.747,0,0,0-.486-.357.406.406,0,0,1-.159-.217c-.018-.187-.058-.351-.308-.306-.264-.024-.409.171-.584.315a.4.4,0,0,1-.171.065,3.49,3.49,0,0,0-.905-.329.6.6,0,0,0-.556.072.768.768,0,0,1-.268.03,1.508,1.508,0,0,0-1.43.36.413.413,0,0,1-.271-.079.613.613,0,0,1-.126-.143c-.1-.232-.182-.47-.294-.7-.124-.6-.675-.837-1.043-1.232a5.5,5.5,0,0,1-.371-2.989,5.444,5.444,0,0,1,.332-1.024.561.561,0,0,1,.311-.255,1.83,1.83,0,0,1,.519-.065.829.829,0,0,0,.952-.867.682.682,0,0,1,.472-.311c.561.133.939-.28,1.391-.472.281-.117-.035-.309.072-.442.219-.371.612-.4.968-.489a1.167,1.167,0,0,1,.4.019c.6.28.821-.21,1.122-.545a.418.418,0,0,1,.182-.063c.729-.07.729-.07.568-.759a.561.561,0,0,1,.341-.446.669.669,0,0,1,.33.044c.419.129.6-.014.549-.46a2.338,2.338,0,0,1-.005-.542,1.73,1.73,0,0,1,.87-1.033,2.419,2.419,0,0,1,1.113-.453,4.842,4.842,0,0,0,2.41-.988c.231.023.391.348.673.156l.066.056c-.052-.225-.411-.264-.348-.563a.63.63,0,0,1,.442-.468c.378.159.549-.211.82-.323.475-.194-.122-.484.059-.706a1.3,1.3,0,0,1,.465-.743c.336-.222.526.049.764.211Z" transform="translate(264.825 135.748)" fill="#2860ad"></path><path id="Trazado_9254" data-name="Trazado 9254" d="M1037.184,334.287l-.058.25a1.393,1.393,0,0,1-.891.592,1.142,1.142,0,0,1-1.225-.042c-.157-.22-.39-.192-.617-.189a.43.43,0,0,1-.168-.065c-.2-.5-.6-.547-1.056-.47a.183.183,0,0,1-.1-.147c.065-.213.341-.264.362-.536a5.037,5.037,0,0,1-1.916-.1,3.5,3.5,0,0,0-1.97-.278,1.335,1.335,0,0,1-.46-.184c-.089.152.063.3-.007.435-.292.472-.821.517-1.271.708a2.349,2.349,0,0,1-1.461-.928,3.558,3.558,0,0,1,.29-1.456c.306-.556.308-1.068-.357-1.393a.677.677,0,0,1,.154-.743c.346-.407.926-.065,1.292-.407a1.451,1.451,0,0,0,.369-.383,2.97,2.97,0,0,0,.18-.306c.126-.211.238-.437.491-.528a.147.147,0,0,1,.147.086c.042.077.009.182.052.238s-.025.08-.009.021a.4.4,0,0,0-.1-.35c.358-.322.479-.061.5.241a.718.718,0,0,0,.278.619c-.192-.152-.336-.339-.236-.592.07-.175.222-.086.343-.028a7.99,7.99,0,0,1,1.563,2.2.416.416,0,0,1,.007.131c-.028.18-.141.4.2.4-.026.29.371.708-.246.818-.063-.065.014.023-.051-.038-.045-.045-.061-.11-.124-.136.049.042.08.1.131.14a6.694,6.694,0,0,0,1.253.079,2.309,2.309,0,0,0,1.512.4,8.316,8.316,0,0,1,1.793.054.633.633,0,0,1,.185.133,1.867,1.867,0,0,0,.425.171c.629.08.935.4.813,1.05A.537.537,0,0,1,1037.184,334.287Z" transform="translate(242.36 173.253)" fill="#bfdef8"></path><path id="Trazado_9255" data-name="Trazado 9255" d="M1102.953,278.313c.8-.1-.28-.572.15-.741-.381-.129-.106-.336-.061-.514s.161-.447.107-.488a.525.525,0,0,0-.615.007c-.005-.136-.012-.273-.017-.409.056-.178.108-.353.163-.531.044-.049.089-.1.133-.145.262-.185.405.042.584.161s.3.458.54.224c.22-.217-.1-.384-.2-.566-.084-.157-.21-.3-.11-.5.316-.1.631-.194.946-.292a8.245,8.245,0,0,1,2.282-.661,1.9,1.9,0,0,1,.851.15,1.969,1.969,0,0,0,1.7.231c.526-.016,1.043-.124,1.568-.164a24.884,24.884,0,0,1,4.918-.234,3.993,3.993,0,0,0,1.425-.379,3.988,3.988,0,0,1,1.781.989,4.156,4.156,0,0,1,1.409,1.411.736.736,0,0,0,.818.384,78.9,78.9,0,0,1,6.54,5.214c.108.357-.154.4-.4.47.338.412.787.322,1.227.278a1.256,1.256,0,0,1,.844.358,3.228,3.228,0,0,1,.327,1.54.683.683,0,0,1-.136.218c-.063.072-.2-.093-.133,0,.461.6-.065,1.236.081,1.851a4.638,4.638,0,0,0,.124.848c.014.947-.042,1.893-.01,2.838.012.194.005.388,0,.584.007.519-.131.945-.706,1.092-.587.077-1.175.164-1.76.257a1.456,1.456,0,0,1-1.251-.245.856.856,0,0,1-.2-.238c-.148-.7-.844-.538-1.276-.786-.144-.082-.355-.047-.521-.131a.2.2,0,0,1-.094-.152,1.413,1.413,0,0,1,.537-.419c-.484.533-1.112-.236-1.741-.072-.6-.1-1-.577-1.51-.837-.455-.337-.937-.631-1.421-.926a8.208,8.208,0,0,0-1.225-.865c-1.562-1.078-3.135-2.141-4.733-3.17a3.912,3.912,0,0,0-1.117-.482,3.584,3.584,0,0,0-1.849-.315,8.647,8.647,0,0,0-1.519.061c-.232.065-.481.051-.709.129a4.03,4.03,0,0,1-1.29.287,5.657,5.657,0,0,0-.664.129c-.227.052-.46.072-.687.1a3.99,3.99,0,0,1-1.267-.343c-.341-.194-.846-.112-1.01-.6.042-.2.086-.4.127-.6a3.949,3.949,0,0,1,.222-2.237c.53-.734.528-.739-.475-1.078C1103.388,278.809,1102.883,278.853,1102.953,278.313Z" transform="translate(299.403 132.499)" fill="#2860ad"></path><path id="Trazado_9256" data-name="Trazado 9256" d="M1021.935,330.358l-.243-.075c-.334-.093-.4-.383-.489-.655a.327.327,0,0,1,.065-.252c.044-.044.15.012.129-.024a7.33,7.33,0,0,1-.423-1.5l0,0c-.052-.175.293.225.14-.1a.273.273,0,0,1,.014-.3l0,0c.2.03.414-.274.6-.045-.052-.336-.259-.689-.346-1.08-.058-.367.143-.694.168-1.049-.061-.358-.58-.657-.136-1.078a.337.337,0,0,1,.15-.1,6.969,6.969,0,0,1,1.433-.059.56.56,0,0,0,.678-.288,1.04,1.04,0,0,1,.47-.336.976.976,0,0,1,.2-.051,5.822,5.822,0,0,1,.6-.028c.385.04.552-.1.456-.5-.08-.329-.079-.671-.182-1a6.079,6.079,0,0,0-.14-.956,9.875,9.875,0,0,1-.047-1.363,2.446,2.446,0,0,1,.037-.542,1.4,1.4,0,0,1,.7-.876,9.672,9.672,0,0,0,2.131-1.736.509.509,0,0,1,.236-.122c.274.075.435.049.257-.287a.351.351,0,0,1,.3-.318,1.176,1.176,0,0,1,.654.107.515.515,0,0,0,.613-.129.959.959,0,0,1,1.309-.253.837.837,0,0,0,.334.035c.219.031.42.164.652.122.147-.024.3-.1.152-.252-.281-.306-.016-.481.122-.694a5.381,5.381,0,0,1,2.328-1.094c.151-.047.322-.152.456-.112a2.362,2.362,0,0,0,2.181-.713,1.407,1.407,0,0,1,1.472.187,3.053,3.053,0,0,0,1.8.664,2.08,2.08,0,0,1,1.666,1.008.753.753,0,0,1,.044.421,3,3,0,0,0,.157,1.6,2.578,2.578,0,0,1,.112.79,6.845,6.845,0,0,0,.045,1.853.432.432,0,0,1-.336.107.235.235,0,0,0-.281.213,1.356,1.356,0,0,1-.29.444,2.4,2.4,0,0,0-.514,1.059,1.946,1.946,0,0,1-.828,1.625,1.228,1.228,0,0,1-.453.171c-.243-.01-.479-.014-.533.309a.5.5,0,0,1-.28.225,1.071,1.071,0,0,0-.743.944c-.156.316-.222.7-.64.809-.358-.082-.5.157-.57.428a.822.822,0,0,1-.755.662c-.171.023-.44.238-.5-.068-.051-.29.115-.538.493-.468-.381-.059-.575.187-.509.482.135.589-.11.79-.559.792.173-.051.456-.173.323.3-.325.4-.816.6-1.141,1-.173.133-.409.236-.552.065-.446-.531-.792-.226-1.157.08-1-.047-1.348.482-1.005,1.559.121.353-.106.636-.2.944-.042.126-.087.246-.128.37a5.062,5.062,0,0,0-.278,1.047c-.014.087-.038.175-.058.259-.238,1.008-.365,1.056-1.28.479a.378.378,0,0,1-.106-.156c.222-.409-.157-.22-.285-.281a4.342,4.342,0,0,1-.993-.8c-.376-.3-.722-.516-1.213-.267a.947.947,0,0,1-.6.016.91.91,0,0,0-.428-.023.647.647,0,0,1-.266-.016.336.336,0,0,1-.182-.19.952.952,0,0,0-.218-.626.494.494,0,0,1-.033-.177c-.112-.489-.348-.353-.6-.117a.675.675,0,0,1-.17.068,2.891,2.891,0,0,0-.932.25c-.161.14-.189.357-.3.523-.46.477-.7.058-.963-.241-.033-.232-.24-.227-.4-.287a.352.352,0,0,1-.141-.117C1022.272,330.321,1022.185,330.249,1021.935,330.358Z" transform="translate(238.42 161.714)" fill="#2860ad"></path><path id="Trazado_9257" data-name="Trazado 9257" d="M932.331,361.607l-.937-3.856c-.11-.451-.2-.827-.274-1.112a.442.442,0,0,1-.108.005c-.509,0-1.047-.337-1.737-1.094a10.649,10.649,0,0,0-.954-.987c-.467.2-1.426.468-4.457-.334a23.55,23.55,0,0,1-3-.877c-.14-.058-.628-.232-2.321-.75-4.537-1.389-5.055-2.048-5.186-2.447l-4.224-3.4-4.417-3.34a.653.653,0,0,1-.25-.416l-.433-2.594-1.059-3.373-1.909-3.906-.72-2.727-1.634-.689h-1.625l-1.334,2.664a.627.627,0,0,1-.192.231l-2.162,1.622a.643.643,0,0,1-.391.131h-2.7a.658.658,0,0,1-.47-.2l-2.72-2.791-.5,1.545a.657.657,0,0,1-.624.454h-2.174l-.4,3.559a.655.655,0,0,1-.652.584H879.8a.657.657,0,0,1-.362-.11l-3.018-1.994-2.849,3.038.633,3.59a.654.654,0,0,1-.381.713l-7.435,3.281v8.547a.652.652,0,0,1-.292.545l-3.45,2.3a.652.652,0,0,1-.8-.059l-2.345-2.132h-2.632l-2.16,2.943.851,3.616.474,3.987a.661.661,0,0,1-.089.414l-2.761,4.6a.659.659,0,0,1-.563.316H848.99l-.566,2.265a.658.658,0,0,1-.636.5H845.12l-3.338,1,2.129,1.763,3.011-.83a.645.645,0,0,1,.173-.024h4.142a.654.654,0,0,1,.606.409l2.073,5.062,3.078,8.354,3.5-4.957.3-.336.433-.26,8.1-3,8.136-2.968,2.066-.19,2.255.738,4.135.869,3.8-1.29,5.649-4.7,5.023-5.341,1.667-1.438,2.069-.318,5.222.572,5.179-.563,7.168-1.057,7.252.018,2.55.232c0-.026-.005-.052,0-.079Z" transform="translate(104.43 174.561)" fill="#2860ad"></path><path id="Trazado_9258" data-name="Trazado 9258" d="M937.23,382.235a.654.654,0,0,1,.108-.358l2.744-4.189-1.325-2.952-1.482-3.828a.656.656,0,0,1,.082-.627l1.47-1.986,1.3-2.214-1.407-5.785a.653.653,0,0,1,.306-.72l4.079-2.4v-4.113a.659.659,0,0,1,.225-.5l3.8-3.3a.653.653,0,0,1,.43-.161h1.9a.71.71,0,0,1,.21.033l3.961,1.339,4.955-1.257.769-3.055a.663.663,0,0,1,.084-.194l1.727-2.681a.643.643,0,0,1,.26-.232l5.186-2.566,1.239-2.725,1.888-4.633,1.5-2.2v-3.807l-1.674-4.022a.658.658,0,0,1,.126-.7l2.473-2.637,1-3.941,2.634-5.18-5.651-2.408a.656.656,0,0,1-.3-.26l-3.153-5.161-3.246-.8-2.3.122-1.344,1.1-10.177,10.183-2.29,4.439-1.985,4.64v3.436a.653.653,0,0,1-.362.586l-2.746,1.372-4.1,2.19a.656.656,0,0,1-.608.005l-2.807-1.438h-2.265l-8.035,3.081-1.159.9a.636.636,0,0,1-.325.133l-3.431.413a.639.639,0,0,1-.624-.287l-1.59-2.386-1.547-1.215-1.952.76-3.045,3.974a.666.666,0,0,1-.283.211l-2.393.93-2.4,1.737a.7.7,0,0,1-.206.1l-1.923.551-1.583.115v2.961a.66.66,0,0,1-.164.435l-2.2,2.471a.663.663,0,0,1-.378.211l-3.158.549-3.408.01a.657.657,0,0,1-.591-.372l-1.384-2.856-1.451.638-2.3,1.762-2.826,1.4-4.079,5.151-.42,3.312a.642.642,0,0,1-.217.409l-2.312,2.043.72,1.47,1.119,3.551.407,2.424,4.226,3.195L888,370.013a.651.651,0,0,1,.227.36,16.519,16.519,0,0,0,4.31,1.687,16.522,16.522,0,0,1,2.735.94c.311.087,1.01.269,2.539.675,2.7.711,3.452.495,3.815.393.825-.238,1.04.007,2.23,1.309a3.16,3.16,0,0,0,.7.629.73.73,0,0,1,.694-.225c.481.115.5.2,1.028,2.37l.974,4a.632.632,0,0,1,.005.292l-.806,3.8.157.224,1.8.163,6.03-.077,1.176.259,1.1.683,5.175,1.879,5.436-.519,5.189-1.519,4.731-.171-.005-.023Z" transform="translate(130.822 153.851)" fill="#2860ad"></path><path id="Trazado_9259" data-name="Trazado 9259" d="M844.35,372.958a52.1,52.1,0,0,0,.778-8.04c0-.664-.014-1.424-.028-2.244a56.659,56.659,0,0,1,.3-8.919,25.727,25.727,0,0,0,.215-3.609c.023-2.1.044-3.919,1.145-4.939.613-.57.271-2.342.021-3.637a6.558,6.558,0,0,1-.208-2.644c.169-.607-1.353-2.837-2-3.789a8.723,8.723,0,0,1-.991-1.624c-.465-.484-4.723-1.659-5.437-1.659a.749.749,0,0,1-.669-.461c-.18-.512-.311-.881,7.636-7.29a.647.647,0,0,1,.411-.145h6.4l3.745-2.342v-9.777l-2.442-3.527-5.189-1.365L843.78,309.5a.649.649,0,0,1-.533.065.662.662,0,0,1-.4-.355l-1.358-2.989-4.163-.83-5.528.308a.584.584,0,0,1-.253-.035l-4.193-1.5a.66.66,0,0,1-.428-.519l-.8-5.362-8.508,1.017-.063.175-1.715,2.293-3-.4-1.764-.753-1.545.823-1.316,1.321-1.725-.274-1.945-.15-1.167,1.905-2.092,6.166-4.189,5.109-3.347,2.571-2.1,3.642-1.29,3.889-2.124,3.48-.493.958.267,1.082,2.429,6.282-.266,6.738.236,4.165,1.526,3.8,1.583.33,1.685-1.117,5.748.694,5.775.068,4.607.711,4.034,2.087,3.714,2.187,3.789,2.008,4.364,2.613,4.018,3.113,6.711,7.365,3.868,5.294c.4-.62.879-1.37,1.316-2.1A10.4,10.4,0,0,0,844.35,372.958Z" transform="translate(64.014 151.058)" fill="#2860ad"></path><path id="Trazado_9260" data-name="Trazado 9260" d="M871.385,374.635l-1.9-4.635h-3.613l-3.254.9a.666.666,0,0,1-.592-.126l-3.333-2.761a.658.658,0,0,1,.229-1.134l4.6-1.381a.623.623,0,0,1,.189-.026h2.249l.566-2.265a.657.657,0,0,1,.636-.5h3.772l2.454-4.09-.433-3.691-.909-3.838a.651.651,0,0,1,.112-.538L874.7,347.1a.649.649,0,0,1,.528-.269h3.216a.656.656,0,0,1,.44.171l2.153,1.958,2.734-1.823V339.9l-4.219,3.487a.661.661,0,0,1-.418.15H873.61a.66.66,0,0,1-.559-.313l-1.468-2.391-3.571,2.578a.671.671,0,0,1-.53.11.663.663,0,0,1-.43-.327l-2.186-4-1.648,1.945,1.32,2.842a.656.656,0,0,1-.044.634l-1.5,2.3a.66.66,0,0,1-.814.243l-4.716-2.073a.658.658,0,0,1-.39-.6v-2.029l-7.765,3.066-4.761,3.6a.653.653,0,0,1-.4.133h-9.559a.66.66,0,0,1-.309-.077l-4.588-2.443-5.167-.43-3.3,2.113.87,1.192-.855.3-.883.339-2.581.975-1,2.529,1.625,4.939,3.483,1.262,2.935.816,2.367,1.792.65,1.274-1.23.568-2.643,1.248.538,2.789.935,2.372,1,2.349,4.338,6.911,4.172,7.028.856.82,1.332.252,4.1,1.143,3.076,2.952,1.37,1.321,1.585,1.061,4.039,2.179,4.158,1.986,4.263,1.2,4.368-1,1.575-2.676-.526-3.354.586-2.248,2.305-.33,2.057-.112,1.047-1.618,3.69-5a.644.644,0,0,1-.229-.3Z" transform="translate(85.74 181.655)" fill="#2860ad"></path><path id="Trazado_9261" data-name="Trazado 9261" d="M820.963,329.965l.841,5.6,3.7,1.318,5.56-.29,4.654.909a.669.669,0,0,1,.47.372l1.192,2.625,3.861-2.316a.645.645,0,0,1,.505-.072l5.691,1.5a.657.657,0,0,1,.372.26l2.517,3.635,7.75.554,2.181-2.454c.968-.972,4.824-6.759,6.231-8.908.953-1.12,4.034-4.494,5.768-4.179,1.5.3,5.408,1.2,5.408,1.2a.654.654,0,0,1,.475.844l-1.2,3.593a.632.632,0,0,1-.241.325l-1.6,1.143.827,1.32,8.127-5.048c1.9-.743,4-1.771,4.294-2.2.051-.675-1.947-5.572-3.88-9.709l-3.48-2.9a.653.653,0,0,1-.233-.565.66.66,0,0,1,.332-.512l5.39-3,3.609-1.122.551-4.964a.654.654,0,0,1,.162-.363l2.395-2.7a.661.661,0,0,1,.446-.218l4.193-.28,2.517-3.354,1.464-2.349a.649.649,0,0,1,.51-.308l2.879-.2,1.407-2.19a.632.632,0,0,1,.219-.211l4.993-2.938,2.6-3.118-3.3-4.682a.653.653,0,0,1,.119-.881l4.744-3.91-1.353-4.065a.621.621,0,0,1-.005-.4l1.2-3.894a.648.648,0,0,1,.748-.451l4.341.814,2.288-3.812-1.961-4.481a.655.655,0,0,1,.177-.764l3.5-2.961-1.566-3.132-.725-1.267-1.491,1.7a.659.659,0,0,1-.4.217l-9.9,1.416-1.456,2.082-3.137,2.284-2.433,2.445-3.233-1.194c-1.417-.517-1.994-.028-2.213.311l.71,4.041-1.961,4.544-8.72-1.987-1.762.091v3.242l-2.765,2.765-3.23-.968h-2.3l-1.874.276c-1.15.166-1.127.147-1.157.15-.047.005-.262.028-1.141.136-.453.058-.706.086-.856.112a7.024,7.024,0,0,1-2.09.982c-2.964,1.08-4.3.44-4.773.065l-1.049-.477-2.183,1.213-3.686,2.461-4.754-7.613-1.459-2.765c-.2-.372-.411-.6-.575-.606-.481-.019-1.143.727-1.487,1.25l-.231.351-7.977.753-8.358,0-6.049-1.068-2.973-1.276,2.969-4.364.979-2.449-.883-2.318-1.784-.715-3.546-1.769-4.923.533,1.43.309-4.6,5.332-.051-2.274a19.73,19.73,0,0,0-.617-2.817l-1.278-1.573-1.662.925-2.262,5.315-1.882,2.6.828,1.83,2.461-.087,2.412.17,1.8,1.819.514,3.069-1.517,2.679-2.636,2.908.292,3.969.016.694-.678.535-4.445,2.779-4.058,3.333-2.4,2.1-.785,2.7-.28,3.812-1.55,3.3-1.286,2.817.341,3.134,4.508,7.276,3.462,7.851,1.779,1.933,2.686-.288,3.478-.745,1.138,3.378.014,1.6-1.084,1.052-.344.264,8.024-.958A.646.646,0,0,1,820.963,329.965Z" transform="translate(70.37 118.554)" fill="#2860ad"></path><path id="Trazado_9262" data-name="Trazado 9262" d="M975.992,338.745a.661.661,0,0,1-.44-.362l-5.39-11.68-1.542-6.72a.654.654,0,0,1,.04-.416l1.29-2.83L966,313.58l-7.6-.879a.651.651,0,0,1-.3-.114l-7.468-5.256-2.552,4.985-.984,3.966a.658.658,0,0,1-.157.288l-2.3,2.452,1.563,3.751a.663.663,0,0,1,.051.253v4.142a.67.67,0,0,1-.115.374l-1.554,2.244-1.83,4.529-1.346,2.964a.648.648,0,0,1-.308.315l-5.233,2.588-1.569,2.438-.837,3.331a.648.648,0,0,1-.475.474l-5.523,1.4a.668.668,0,0,1-.371-.014l-4.039-1.365h-1.547l-3.387,2.941v4.189a.652.652,0,0,1-.323.565l-3.983,2.342,1.354,5.568a.653.653,0,0,1-.072.488l-1.472,2.5-1.293,1.751,1.341,3.461,1.458,3.247a.653.653,0,0,1-.051.628l-2.833,4.326v4.707l0,.007,4.626.045,5.284-.037,2.284.218,2.183.975,2.908,1.473,3.148,1.012,4.053-.8,3.4-3.983,3.373-3.959,5.028.014,1.189.257,1.208-.358,2.559-.645,2.564.844,2.408,1.825,1.9,2.335,3.309,2.237,3.13-2.185,3.63-3.676,2.286-4.632.243-.613.46-.4,3.326-2.744.9-4.21.617-2.27,1.407-1.945,1.2-1.627.229-1.805,2.132-6.694,5.014-4.766,2.952-2.129-1.973-2.959Z" transform="translate(157.119 157.825)" fill="#2860ad"></path><path id="Trazado_9263" data-name="Trazado 9263" d="M812.292,286.692l3.471-1.93,1.774,2.185a6.257,6.257,0,0,1,2.623-.648l5.532-.6,3.939,1.97,2.429.968,1.4,3.674-1.358,3.337-1.828,2.688.928.4,5.605.982,8.125-.014,7.08-.673a3.526,3.526,0,0,1,2.777-1.683,2.446,2.446,0,0,1,2.04,1.538l1.428,2.709,3.77,6.03,2.246-1.5,3.015-1.678,2.269,1.12a1.508,1.508,0,0,0,.717.108,6.981,6.981,0,0,0,2.318-.5,6.74,6.74,0,0,0,1.559-.675c.332-.332.468-.35,1.771-.512,1.241-.156,1.327-.149,1.356-.15,0,0,.182-.028.911-.133l2-.285,2.676-.009,2.475.743,1.515-1.515v-4.177l3.66-.19,7.542,1.718,1.176-2.728-.708-4.037.079-.217a2.931,2.931,0,0,1,1.48-1.566,3.894,3.894,0,0,1,3.067.042l2.186.8,1.744-1.743,3.116-2.281.963-1.438-1.909-2.15a.642.642,0,0,1-.156-.549l.8-4.527-6.942-2.22a.659.659,0,0,1-.456-.626v-7.486l-1.178-4.633-.306-8.777-3.906-2.51a.664.664,0,0,1-.3-.624l.9-8.087a.663.663,0,0,1,.173-.376l4-4.287-.275-4.937-2.181-3.394-3.02,2.768a.656.656,0,0,1-1.094-.4l-.224-1.783-3.873.259a.656.656,0,0,1-.547-.234l-2.833-3.4-8.138-1.164a.719.719,0,0,1-.086-.031.43.43,0,0,1-.068-.01c-.016-.005-.025-.019-.038-.026a.589.589,0,0,1-.143-.1.83.83,0,0,1-.073-.065.661.661,0,0,1-.107-.2c-.005-.014-.018-.024-.021-.038l0-.012v0l-.923-3.225-4.02,3.268a.652.652,0,0,1-.694.082l-10.782-5.091a.667.667,0,0,1-.184-.128l-6.547-6.549-6.462,3.371-8.72,5.818-.835,3.057a.684.684,0,0,1-.68.482l-12.278-.9a.691.691,0,0,1-.2-.045l-.982-.393-1.405.551-1.066.285-1.022.486-1.706,1.061-.521,1.639.39,2.8,1.583,2.193,1.617,1.271.9,1.762.5,7.828-3.345,7.031-1.269,2.183-.846,2.347-2.09,4.5-5,.36-3.5-.626-3.387.045-5.2.519-5.007-1.15-.933-.192-.759.46-.2.731.341.717,1.552,2.926,1.991,2.686,1.174,1.293.149,1.727.047,1.881,1.48,1.061,1.931,1.41-.274,2.48-.463,1.877.771,1.736,2.23,3.045.65,3.679.652,2.232,1.791,1.577,1.045.687,1.271-1.755Z" transform="translate(68.394 89.203)" fill="#2860ad"></path><path id="Trazado_9264" data-name="Trazado 9264" d="M807.928,257.86l.052-.063-.075-.026C807.912,257.8,807.919,257.83,807.928,257.86Z" transform="translate(79.097 120.764)" fill="#333"></path><path id="Trazado_9265" data-name="Trazado 9265" d="M975.716,167.636l-2.38-.184a.653.653,0,0,1-.434-.21l-2.183-2.38-3.847-4.018-3.981-3.389c-1.86-1.587-2.449-1.374-2.51-1.342-.184.087-.266.537-.255.811a.667.667,0,0,1-.383.629l-4.881,2.225-2.283,5.956a.656.656,0,0,1-.587.419l-5.126.2a.589.589,0,0,1-.4-.117l-1.83-1.281c-.741-.519-1.017-.713-1.078-1.126a.988.988,0,0,1,.274-.778,3.869,3.869,0,0,0,.708-2.51,6.605,6.605,0,0,0-.247-2.788l-2.837,2.054v3.165a.657.657,0,0,1-.549.647l-4.128.69-2.769,1.758-2.468,2.309a48.381,48.381,0,0,0-5.032,5.764l-4.294,3.73a.651.651,0,0,1-.6.136.659.659,0,0,1-.447-.426l-1.344-4.086h-1.409l1.741,3.6a.658.658,0,0,1-.115.738l-3.345,3.518-3.029,2.365-3.232,5.745a.647.647,0,0,1-.252.248l-2.927,1.648-5.214,4.072.963.687,8.914,4.747a.654.654,0,0,1,.346.578v4.52l2,2,5.4-.283a.655.655,0,0,1,.645.416l1.963,5.048,4.728.834a.655.655,0,0,1,.542.645,4.6,4.6,0,0,0,2.77.566l1.051-2.886a.655.655,0,0,1,.615-.432h7.187a.655.655,0,0,1,.463.192l1.8,1.8a.655.655,0,0,1,.189.545l-.213,1.7,4.1.257a.653.653,0,0,1,.451.22l4.494,5.091,3.2,3.2,3.662,1.971h5.617l2.679-1.875,1.423-3.13a.676.676,0,0,1,.3-.316l2.943-1.47-1.706-2.681a.662.662,0,0,1-.014-.683l2-3.426-.29-5.493a.693.693,0,0,1,.026-.224l1.8-5.99a.637.637,0,0,1,.654-.465.651.651,0,0,1,.615.516l.843,3.933,1.283.855a2.652,2.652,0,0,0-.093-1.746.664.664,0,0,1-.012-.374l1.447-5.5-1.136-3.408a.658.658,0,0,1,.065-.554c.479-.764,1.657-2.475,2.74-2.683l5.133-2.973-1.007-3.517-2.552-2.27a.654.654,0,0,1-.089-.883l1.627-2.169L980.44,173.7l-1.085-7.313-3.366,1.213A.7.7,0,0,1,975.716,167.636Z" transform="translate(149.487 44.726)" fill="#bfdef8"></path><path id="Trazado_9266" data-name="Trazado 9266" d="M1074.174,195.818l-4.179-2.851v-3.385l-.744-3.541-1.6-2.138-2.786-1.856,1.118-5.091h-2.66l-6.311.987-1.2,2.153-2.641,3.884h-2.1l-1.923,2.2-5.687,7.316-8.905.159-1.659,1.106c-.988.659-1.358.9-2.085.544a4.883,4.883,0,0,0-2.424-.241,9.865,9.865,0,0,1-3.359-.239l-1.005.97H1020.3V193.5h-.486l-4.387,4.331-.14-.142-2.314,3.758-.535,1.659a.655.655,0,0,1-.3.365l-5.154,2.866-1.381,4.689,1.447,8.678,1.7,2.267a.657.657,0,0,1,.107.575l-1.2,4.191a.641.641,0,0,1-.292.383l-2.648,1.589.094,1.223a.6.6,0,0,1,.068.135.655.655,0,0,1-.028.39l.086,1.112,6.556-.274a.647.647,0,0,1,.551.26.659.659,0,0,1,.1.6l-1.2,3.593a8.081,8.081,0,0,0-.367,2.122c1.012-.068,3.7-.433,4.745-.582a.656.656,0,0,1,.409.075l5.988,3.293a.665.665,0,0,1,.329.446l.563,2.823,1.547,1.751,1.928-4.013,1.388-1.7,1.809-.53,4.574-1.155,4.357-1.709,1.66-.987.655-1.788-.851-.7-1.374.126-.757-.549-.547-.759-.876-1.25-1.522-.418-2.18-1.253.89-2.253,2.723-3.55,2.608-3.6,3.985-4.338,5.193-2.763,4.717-1.4,4.45-2.387,5.485-2.734,6.023-1.8,6.942-2.237-.958-2.478A5.344,5.344,0,0,1,1074.174,195.818Z" transform="translate(226.269 60.332)" fill="#2860ad"></path><path id="Trazado_9267" data-name="Trazado 9267" d="M1012.331,335.565a.692.692,0,0,1-.219-.108l-3.593-2.7a.652.652,0,0,1-.264-.524v-4l-3.718-1.063a.651.651,0,0,1-.463-.516l-.9-5.091-.594-2.669a.655.655,0,0,1,.14-.565l3.153-3.726.273-4.609-1.545-1.8-3.786-2.038a.653.653,0,0,1-.308-.8l1.8-5.091,2.234-3.931-2.146-2.952a.659.659,0,0,1-.122-.346l-.264-4.452-.2.052-1.024-3.978-4.8-3.372-2.085-.918-2.449,1.157-3.226-1.306c-1.1-.442-1.459-.26-1.524-.222a.45.45,0,0,0-.149.316l-.016.313-.212.255-1.37,1.507-3.282,2.77-.755,3.143-.669,2.274-.257,3.87.951,3.777V302.1l-2.408,2.966-4.859.717-2.1-2.641-1.007-.479h-2.912l-3.034,2.414-5.745,2.013-4.52-1.41-2.422-.4v2.777l-1.5,2.265-2.209,1.433-3.176,3.863-5.958,6.053-5.78,3.892,1.589.682.017.012.023.005a.617.617,0,0,1,.1.084l7.924,5.558,7.62.881a.65.65,0,0,1,.336.138l4.492,3.593a.656.656,0,0,1,.187.783l-1.407,3.092,1.449,6.376,5.214,11.263,13.17,3.219a.65.65,0,0,1,.39.273l2.089,3.132,1.856-1.339,5.49-5.189.33-.3.449-.239,10.151-4.044,10.875-1.106,1.243.3,1,.762,1.6.881,1.64-.281,3.286-1.2,3.371-.776,2.033-.33,1.257-1.529-.942-1.535-1.805-.62-2.545-1.7-1.334-2.253.739-3.162,1.507-2.118,1.48-1.507-.552-.332Z" transform="translate(172.872 137.341)" fill="#2860ad"></path><path id="Trazado_9268" data-name="Trazado 9268" d="M1021.229,251.035l-1.1-1.9-1.617-1.183-1.522-.8-.778.323-1.659,2.608-2.283.806c-1.092.386-1.356.481-1.776.182l-.371-.26-.005-.175c-.072-.019-.164-.04-.288-.063-.942-.166-1.475-.57-1.591-1.2a1.6,1.6,0,0,1,.589-1.412l-.2-.343a1.439,1.439,0,0,0-.108.163l-1.907,2.517-4.5-.643-.164-2.349a18.7,18.7,0,0,1-.038-2.2l-.472-.316-4.723-.8-4.6-2.891-1.6,2.052a.654.654,0,0,1-.517.253h-3.894a.654.654,0,0,1-.652-.72l.551-5.493-4.621-1.8-3.024,1.888a.647.647,0,0,1-.381.68.64.64,0,0,1-.259.052.666.666,0,0,1-.358-.107l-.493.308-4.481,2.244v5.285l.294,3.235a.651.651,0,0,1-.187.523l-3.765,3.765-.855,3.419a.677.677,0,0,1-.713.491l-4.548-.535-1.038,3.371a.657.657,0,0,1-.446.437l-3.349.958,1.625,2.552a.655.655,0,0,1,.1.311l.152,2.419a.621.621,0,0,1,.558.154.661.661,0,0,1,0,.928l-.461.461.051.83,0,3.389,1.309-1.147a.665.665,0,0,1,.677-.115l4.492,1.8,4.126,1.769,4.4.587c2.087.346,3.625,3.314,3.793,3.651a.644.644,0,0,1,0,.587L976.9,283.01l.58,6.1a.654.654,0,0,1-.26.586l-4.413,3.309.7,2.092,4.67,4.38,2.564,1.786,2.926-1.861a.64.64,0,0,1,.351-.1h5.091a.656.656,0,0,1,.654.614l.3,4.492-.353,4.621h2.875l.9,2.19,4.565-1.022,3.354.084,2.749,1.383c.224.259,1.216.246,2.3.018l-.953-1.805,1.6-2.658,2.59-1.456h1.461l3.079-.989a3,3,0,0,1,.538-1.421c.8-1.148,2.359-1.854,4.635-2.1.8-.087,1.276-.159,1.554-.21.206-.419.582-.414,3.623-.341l5.883.136.7.073-1.18-.745-4.707-8-.767-4.195-1.089-4.168-2.167-5.268-1.916-5.376-.462-2.936.64-2.975,3.95-7.425,2.854-7.211-1.715.11Z" transform="translate(191.178 104.035)" fill="#2860ad"></path><path id="Trazado_9269" data-name="Trazado 9269" d="M1041.614,221.831l-.538-2.7-5.53-3.043c-.935.131-4.139.573-4.967.573a.956.956,0,0,1-.785-.393c-.545-.731-.135-2.471.157-3.445l.9-2.711-6.24.26a.641.641,0,0,1-.682-.6l-.093-1.2-6.566,1.783a.671.671,0,0,1-.523-.077.655.655,0,0,1-.3-.439l-.5-2.756h-5.028l-8.875,3.254-4.661,3.034v3.223l4.177.26a.656.656,0,0,1,.612.72l-.273,2.732,3.13,3.985a.658.658,0,0,1,.122.552l-.9,3.894-4.833,10.609a.658.658,0,0,1-.6.381h-9.665l-.954,4.062a2.145,2.145,0,0,1,.963,1.182c.578,1.732-1,4.093-1.185,4.355a.67.67,0,0,1-.285.232l-5.691,2.4L977.9,255l-.273,3.3.236,2.279,4.8,3.02,4.754.814,1.5,1-.065.535a14.241,14.241,0,0,0,.005,2.417l.066.94,2.083.3,1.215-1.592a2.093,2.093,0,0,1,1.6-1.138,1.561,1.561,0,0,1,1.375.867l1.155,1.928-.72.43a2.359,2.359,0,0,1,.951.421c.08-.03.171-.061.276-.1l1.711-.6,1.632-2.562,2.043-.851,2.361,1.25,2.109,1.627.926,1.6,2.492,1.239,2.26-.145,4.174-6.933,4.8-7.811.563-.711.825-.556,3.121-2.613,1.62-3.8.832-2.216,1.721-1.725,4.721-5.245,3.534-6.1,4.3-7.365,1.187-2.468-2.029-2.3A.667.667,0,0,1,1041.614,221.831Z" transform="translate(206.011 82.861)" fill="#2860ad"></path><path id="Trazado_9270" data-name="Trazado 9270" d="M834.934,173.111a.656.656,0,0,1-.079-.678l1.8-3.892a.655.655,0,0,1,.274-.3l4.791-2.7,4.784-2.814.276-3.85a.654.654,0,0,1,.035-.171l1.736-4.917-1.372-6.586-5.563-1.113-8.583-2.765-3,6.837h-6.285l-7.764,4.784-7.858-4.52-1.283-2.949-3.924-1.526v-3.2l-1.536-3.924-3.041,2.641-3.821.753-4.16-.5-.849-.1a2.306,2.306,0,0,1-1.29.575c-1.008.2-1.288.531-1.267.659l.444,1.182-2.639-.054-4.362,2.234v4.116l1.327,3.132,2.534,3v4.647l1.094,2.588-.806.341.788,1.86.482,1.889,1.91.731,1.994,1.183-.535,2.255-1.042.722-1.148.5-2.171,1.84-1.4,2.452.349,1.557,1.622.624.316.47-.184.64-.528,2.052,1.129,1.5,2.468.07,2.328-1.124,4.277-2.765,5.088.715,1.362.217,1.368-.461,2.2-.622,1.893,1.269,3.658,2.709,4.621.231,1.4-.154,1.281.724,3.013,1.316,2.889-1.374,1.493-.855,1.669-.357,2.849-.783.757-2.842.626-1.907,1.166-.379,4.682,1.363,1.461-.089.248-.989Z" transform="translate(58.528 31.827)" fill="#bfdef8"></path><path id="Trazado_9271" data-name="Trazado 9271" d="M906.417,126.66a.712.712,0,0,1-.045.227l2.377.322,5-.005a.649.649,0,0,1,.257.052l3.983,1.708,4.709-1.272,1.056-1.423a.665.665,0,0,1,.156-.149l2.47-1.694a.656.656,0,0,1,1.026.54v3.176l2.4,6.2,1.907,1.905,5.7.191,4.223.867,1.949-3.326a.654.654,0,0,1,.564-.325h4.062l1.594-1.945,1.384-2.44-1.5-4.492a.653.653,0,0,1,.248-.745l2.824-1.961,1.6-3.822c-1.772-.7-3.639-1.468-5.673-2.326-6.454-2.72-15.882-2.415-18.242,4.179a77.7,77.7,0,0,0-12.49-4.558l-11.553,5.565Z" transform="translate(152.729 13.486)" fill="#2860ad"></path><path id="Trazado_9272" data-name="Trazado 9272" d="M936.994,121.935a.644.644,0,0,1-.231.285l-2.578,1.791,1.433,4.3a.654.654,0,0,1-.051.533l-1.589,2.786-1.818,2.23c-.145.259-1.089,1.9-3.169,4.868l.858,1.86h8.218a.637.637,0,0,1,.241.047l4.485,1.79,3.871,2.725v-1.917a.656.656,0,0,1,.655-.655h3.487l5.6-4.623v-2.872a.654.654,0,0,1,.257-.521l3.38-2.585,2.221-2.23-1.021-2.788a.659.659,0,0,1,.162-.7l4.343-4.174,5.481-4.172-1.052-1.241-2.029-1.272-2.125,1.3-.624,1.2-.923,1.106c-10.586,3.244-16.936,2.265-25.8-1.1l-.005.021Z" transform="translate(169.645 14.303)" fill="#bfdef8"></path><path id="Trazado_9273" data-name="Trazado 9273" d="M825.054,245.666a.648.648,0,0,1,.267-.372l8.985-5.99,6.946-3.63a.663.663,0,0,1,.769.117l6.806,6.808,10.307,4.868,4.471-3.634a.671.671,0,0,1,.61-.117.656.656,0,0,1,.433.446l.97,3.389,3.464-1.98,7.061-6.794,5.533-3.223.26-2.075-.3-3.761a.659.659,0,0,1,.189-.514l2.7-2.7a.684.684,0,0,1,.135-.1l3.436-2,1.631-2.987V216.19a.647.647,0,0,1,.059-.274l1.729-3.745-.575-10.069-2.45-2.449-4.406-2.351a.657.657,0,0,1-.346-.545c0-.056-.019-.4-.04-.912l-1.423.378-2.63-.867-3.053-2.029-2.964-2.548-3.55-.69-3.267.32c-2.678.26-3.765.376-4.1.413l-4.209,1.795-1.809,2.887H853.8v-3.218h-3.3l-2.714-1.874-4.146-.072-3.9-1.688-3.66-1.83-1.459.752-5.715,1.952-4.539,4.016-1.414,1.029L821.658,196l-1.917,4.348-4.546.425-1.418.4.275,1.25,1.87,4.543,1.923,4.5.474.837-.189.923-1.085,2.879.29,2.952.793,4.4-.881,4.4-.1,1.171.629,1.222.689,2.085-1.237,1.786-1.33,2.2.157,2.482.4,3.291-1.271,3.256-2.1,2.283,11.214.82Z" transform="translate(82.969 67.708)" fill="#bfdef8"></path><path id="Trazado_9274" data-name="Trazado 9274" d="M814.694,113.839l-5.579,1.015,2.931,4.151,8.578,5.621,5.111,3.606a.648.648,0,0,1,.271.444l.3,2.1a.66.66,0,0,1-.121.482l-4.193,5.689-2.164,1.94,4.105,2.821,3.223,2.683v-.021h4.756l3.739-3.985,1.844-2.8h9.873l5.679-4h4.625L859.657,138l2.422,1.049,3.48,1.618,4.279-1.557,2.006-2.368H875.4l.093.276a4.989,4.989,0,0,0,1.571-.245l.37-.1a3.76,3.76,0,0,1,.371-.133l0-.014a.966.966,0,0,1,.1-.014c.356-.1.844-.22,1.5-.376l3.242-.762c.43-.516,1.424-1.276,3.714-1.765.367-.079.608-.14.766-.182.182-.334.505-.355,2.307-.467l3.365-.21,4.857-1.178,4.1-4.314,3.978.234,2.473-.245,2.365.844,1.085.136.119-.267,1.519-1.04.907-2.3,3.249-4.576h3.024l.75-.718a86.053,86.053,0,0,1-12-3.613c-8.627-3.317-21.844-2.854-28.152-8.431l-3.389-3-3.857,2.279-1.917,1.147-2.145.231-9.677-.405-9.7.278-7.571-.449-7.563-1.169-8.6-.432-4.756.15-6.827,7.718A.66.66,0,0,1,814.694,113.839Z" transform="translate(80.002 5.988)" fill="#bfdef8"></path><path id="Trazado_9275" data-name="Trazado 9275" d="M959.776,125.39l1.017,2.781a.657.657,0,0,1-.152.689l-2.583,2.583-3.188,2.445v2.856a.651.651,0,0,1-.24.505l-6.019,4.971a.662.662,0,0,1-.418.15h-3.066v5.586a.656.656,0,0,1-.14.405l-2.494,3.186-1.36,5.626.019,1.833a.656.656,0,0,1-.428.615l-5.367,1.987a.624.624,0,0,1-.227.042H932.8V164.3l2.393,2.391a.656.656,0,0,1,.191.463v2.256l4.562.989,7.647-.016,4.4-.593a.657.657,0,0,1,.585.224l3.593,4.191a.667.667,0,0,1,.147.311l.561,3.092,2.1,2.094,4.273.572a.655.655,0,0,1,.479.318l2.1,3.593a.648.648,0,0,1,.086.39l-.3,3.295a.653.653,0,0,1-.53.584l-6.2,1.183-3.9,1.947,2.258,2.256,4.266,1.708,5.284.294a.648.648,0,0,1,.549.36l1.071,2.139,6.012,1.718,6.135.262,3.842-4.118.83-6.629-4.228-3.663a.657.657,0,0,1-.208-.337l-.6-2.4a.623.623,0,0,1-.014-.234l.6-5.093,1.515-5.488.278-4.361a.665.665,0,0,1,.227-.454l3.983-3.415.58-8.113a.657.657,0,0,1,.587-.6l11.389-1.168,2.223-3.059.827-1.968a.661.661,0,0,1,.521-.393,2.988,2.988,0,0,0,2.325-1.25c.874-1.407.141-3.552.135-3.572a.657.657,0,0,1,.056-.554l1.54-2.564-2-.21-5.647-2.155-5.873-1.407-2.7-1.124-.143-2.926.061-1.26-.9-.863L988.71,131l-.715.849-.6.748-.594.752-.767,1.473-1.629-.094-1.222-1.625.554-1.952,1.563-3.326.393-3.613.122-2.428-1.589-1.978-2.833-.271L979.1,121.1l-1.472.97-1.881.031-3.4-.8-2.323-2.644-.851-1.222-5.427,4.127Z" transform="translate(172.495 15.822)" fill="#bfdef8"></path><path id="Trazado_9276" data-name="Trazado 9276" d="M976.771,131.49l-1.646,2.746a6.281,6.281,0,0,1-.087,3.864l2.047,8.124v5.13l-.965,5.476.828,1.306,2.536,2.72-.024,3.321-.448,1.867h1.313l3.143-3.735,2.6,6.294-1.293,6.1-1.893,6.259-3.8,1.992-1.706,3.122,4.329,2.781h9.5l4.121,4.513,2.1,8.239,3.469,2.768,6.117.8,2.714,3.338v2.176c.318.1.834.259,1.638.475.01-.066.019-.136.024-.18.065-.582.33-.912.792-.98.746-.108.846.154,1.72,2.19l1.592,3.714,1.662,5.3v2.132h3.606l1.592,1.945h1.578l1.921-1.538,4.453-.811.322-1.281.215.054.439-1.765a.642.642,0,0,1,.2-.329l2.777-2.5v-5.5l-1.687-2.529-2.152-4.892a.656.656,0,0,1,.117-.706l3.294-3.593,4.469-3.295,3.011-5.474-2.414-2.952a.656.656,0,0,1,.2-.994l4.742-2.512v-3.2a.625.625,0,0,1,.052-.252l3-7.187a.648.648,0,0,1,.475-.392.667.667,0,0,1,.593.178l1.033,1.035,1.44-4.565v-4.574l-2.055-5.581a.62.62,0,0,1-.039-.187l-.3-5.091a.653.653,0,0,1,.531-.683l4.422-.828,1.141-3.2-5.041-1.592a.656.656,0,0,1-.358-.276l-1.5-2.4-.281-.759-1.484.355-2.237-.012-2.218.17-3.223.458-2.928-1.428-.738-.33-.652.4-2.171,1.994-2.531-1.6-1.307-.706-1.682.114-3.135,1.19-3.059,1.337-3.859,1.166-3.071-2.76-2.756-3.16-4.09-1.844-3.41-.061-3.2.495-6.472-.76-5.965-3.048-1.5-1.632-.956-1.98-1.924-3.146-3.721.241-1.8.519A.639.639,0,0,1,976.771,131.49Z" transform="translate(204.076 25.465)" fill="#bfdef8"></path><path id="Trazado_9277" data-name="Trazado 9277" d="M873.779,116.353l-2.683,3.763-.947,2.5-1.407.963,2.349,3.718,2.632,2.831.7,9.188,10.763-1.655a.636.636,0,0,1,.3.023l5.691,1.8a.654.654,0,0,1,.379.313l4.193,7.788,3.529,4.392,1.049,1.825,3.335-.239,1.066-3.464a.652.652,0,0,1,.54-.456.641.641,0,0,1,.64.3l1.863,2.929,2.978-.5a37.108,37.108,0,0,0,4.05-4.079c-1.395-.652-4.434-2.349-5.159-2.756l-4.665-.584a.655.655,0,0,1-.406-1.089l2.7-2.994,2.017-3.485a.659.659,0,0,1,.313-.276l7.005-2.919,2.886-4.326a.646.646,0,0,1,.376-.269l4.494-1.2a.681.681,0,0,1,.168-.023h5.691l2.847.386a.175.175,0,0,1-.007-.03V122.7a.755.755,0,0,1,.427-.678L943.9,117c-1.87-.454-3.754-.851-5.652-1.166,2.235.04.488-3.7-1.713-4.092a13.645,13.645,0,0,0-12.7,4.747c-.01-.065-.021-.131-.03-.2a3.754,3.754,0,0,0-4.635-3.24,89.156,89.156,0,0,1-40.461,1.279l-2.111,2.022Z" transform="translate(124.59 11.424)" fill="#2860ad"></path><path id="Trazado_9278" data-name="Trazado 9278" d="M794.61,165.365l-2.342-2.838-1.519-3.756v-5.362l5.685-2.914h.974a1.993,1.993,0,0,1,.141-.318,3.224,3.224,0,0,1,2.262-1.4.676.676,0,0,1,.031-.133c.241-.706.386-.69,2.826-.4l3.884.468,3.094-.612,3.24-2.812-.463-2.791.46-3.814-1.753-.741a2.871,2.871,0,0,1-1.914-1.9,2.155,2.155,0,0,1,.3-1.6v-3.5l-1.529-2.227-3.84-.919-5.418.972-2.9,2.066-2.922,3.109-5.469,1.72h-5.3l-1.533.638-2.064,2.961-2.83-1.465-2.221,2.346.168.388-.953,1.451-1.127.89-.421,1.328-.3,2.19-1.76,1.543-1.568,1.671.016,2.456,1.564,1.452,2.23.255,1.919-.493,2.062.2-1.592,2.386-2.587,1.209-2.216.893-.757,2.2,1.438,1.655,2.424-.264,1.451-.29,1.108.7-.439,1.36-1.437.8-.759.26-.727.3-3.562,3.66-3.212,3.988-.239.979.288,1.155.253,2.665-.477,2.678-.03,2.98,3.027.288,4.041-2.206,2.992-3.476,1.5-1.293,1.877-.724,8.756-.666,8.519-2.269.773-.068-1.129-2.833Z" transform="translate(46.429 23.576)" fill="#bfdef8"></path><path id="Trazado_9279" data-name="Trazado 9279" d="M991.028,210.761l1.636-1.872L987,205.11l-3.155-1.127a.648.648,0,0,1-.407-.444l-.846-3.1L979.11,197.5l-5.359,1.412a.671.671,0,0,1-.495-.066l-3.887-2.221-3.073,1.536-1.4,3.083a.669.669,0,0,1-.222.266l-3,2.1a.647.647,0,0,1-.376.117h-5.988a.642.642,0,0,1-.311-.079l-3.894-2.1a.683.683,0,0,1-.154-.114l-3.293-3.295-4.342-4.917-4.521-.283a.655.655,0,0,1-.608-.736l.26-2.078-1.379-1.377h-6.456l-1.042,2.863a.658.658,0,0,1-.566.43c-.5.037-3.078.184-4.12-.78a1.529,1.529,0,0,1-.362-.5l-4.534-.8-6.157,1.466a.646.646,0,0,1-.192.016l-4.481-.28-3.176,3.441.5,4,1.059.993a.654.654,0,0,1,.028.925.6.6,0,0,1-.262.121l1.575,3.345a.656.656,0,0,1-.031.62l-4.109,6.752-.29,4.331,0,8.919,3.637,2.8a.672.672,0,0,1,.234.351l1.159,4.348,3.5,4.079,6.621,9.022a.659.659,0,0,1,.1.568l-1.092,3.822,3.323,3.321a.719.719,0,0,1,.108.142l2.332,4.149,4.4-1.218,3.19,1.148,1.937-2.408,1.793-11.128,2.332-3.973H943.8l.15.337a3.438,3.438,0,0,0,1.716-.288,1.269,1.269,0,0,0,.551-.287.9.9,0,0,1,.371-.947c.5-.343.809-.18,2.11.468l1.271.636v-1.561l2.786-2.075,2.122-1.466,6.073-4.887a1.393,1.393,0,0,1,.119-.454c.437-.965,1.919-1.487,4.812-1.7l5.277-.383,4.036,2.307,6.287,3.046,1.965,7.486,3.413-2.5,2.328-4.072a.647.647,0,0,1,.383-.3l4.688-1.377.837-5.873-.589-6.879-1.919-3.015-3.146-1.716a.659.659,0,0,1-.21-.97Z" transform="translate(151.297 69.151)" fill="#bfdef8"></path><path id="Trazado_9280" data-name="Trazado 9280" d="M844.726,214h4.165l2.714,1.874h4.5v3.218h.169l1.583-2.533,5.076-2.124s.851-.1,4.256-.432l3.52-.344,4.254.83,3.23,2.782,2.863,1.9,1.807.572,1.323-.351a42.664,42.664,0,0,1,.107-5.505,17.875,17.875,0,0,1,1.519-4.612l.582-2.912.288-5-.294-4.321-1.767-5.006-2.356-4.4a.658.658,0,0,1,.175-.827l4.927-3.829-1.187-1.895a.668.668,0,0,1-.085-.482l1.162-5.518-1.141-3.424-2.884-6.337-3.413-1.989-5.607-4.418-4.291-.287-6.3-.6L854.49,155l-12.434-1.168-7.391-.888-6.477,1.473a.693.693,0,0,1-.217.012l-5.39-.6a.788.788,0,0,1-.108-.035l-3.981,2.342-4.616,2.6-1.542,3.338,3.948,5.076a.658.658,0,0,1,.119.561l-.224.895,1.833-.112,4.3,1.022,3.485-2.566.453-.276.694-.215.264,3.854,3.85.474,1.423-.107,1.4-.269,1.3-.019.451,1.057.4,5.224-.928,5.357-.065,4.784,3.581,1.659,6.1.161,4.705,3.852,1.036,2.491-1.208,2.26-2.506,2.83-1.533,3.469-.572,1.4-.954.942-3.043,2.335-2.506,2.742,2.9,1.447Z" transform="translate(82.409 42.374)" fill="#bfdef8"></path><path id="Trazado_9281" data-name="Trazado 9281" d="M783.556,160.411l1.475-2.12,2.5-.97h5.334l4.644-1.5,2.742-2.9,3.539-2.438,5.972-1.071,4.848,1.161,1.341,1.954,1.038-1.521.722-4.12L815.93,140.5c-1.2-4.314-1.007-5.326-.185-5.766a.806.806,0,0,1,.154-.068l.026-2.346,1.577-6.154,1.348-7.29,3.27-3.272,2.989-4.689,1.333-11.8.869.1h0l-1.776-2.7-3.067,1.237-3.193,2.613-3.261,2.269-3.279,1.556-3.05,1.923-1.224.828-1.576.157-1.446,1.117-.523,2.013-.647.974.225,1.337.512.3.626-.128,1.005-.273.935.379-.991,1.019-.568,1.087,1.206.9,1.6.306.9-.072.953-.166.517.273.32.488-2.052,1.687-2.482.767-3.088-1.222-2.344,3.3-1.218-3.293-2.461.9-3.8,1.828-4.125.565-3.045.362-2.99-.257-2.137-1.812-1.2-2.851-1.438,2.889-2.837,1.157-2.311,1.026.633,2.351-5,2.267-5.339.311-.661.185-.7.507-.722.841-.038,1.1.7.814,1.106-.054.771-.156.8.432-3.321,2.045-3.522,2.141-.626.809.087,1.1.974,2.055-1.257,1.951-.559.87-.259,1.155-.271,1.6.657,1.321,1.117-.215.877-1.01,1.736-.935,1.833.138.528,1.073-.533,1.253.392,1.37.863,1.122.7.842-.479.944-1.125,1.659.844,1.819,1.723.4,1.244-1.3,2.083-.533,1.732,1.3.115,1.309-1.225.664-3.394,4.132c-.764,5.776.39,12.006,6.054,4.27l3.38-.309.219-.115.257-.269.933-1.043.666.248,2.945-3.109Z" transform="translate(40.864 0.177)" fill="#bfdef8"></path><path id="Trazado_9282" data-name="Trazado 9282" d="M1024.286,142.82l1.309,2.069,5.462,1.723a.659.659,0,0,1,.419.846l-1.5,4.193a.657.657,0,0,1-.5.423l-4.224.794.26,4.417,2.061,5.6a.622.622,0,0,1,.042.225V167.9a.638.638,0,0,1-.031.2l-1.795,5.691a.656.656,0,0,1-1.089.266l-1.1-1.1-2.569,6.163v3.462a.659.659,0,0,1-.348.58l-4.385,2.321,2.188,2.674a.651.651,0,0,1,.066.731l-3.293,5.99a.641.641,0,0,1-.187.211l-4.492,3.3-2.91,3.191,1.926,4.4,1.741,2.6a.645.645,0,0,1,.11.364v5.99a.66.66,0,0,1-.217.488l-2.845,2.562-.393,1.57.213.052-.594,2.377-.136.024-.192,1.966,2.477,2.477,2.894,2.164,4.521-4.462h2.95v2.291h1.269l1.155-1.11,1.224,1.248a.671.671,0,0,0,.185-.587.6.6,0,0,0-.262-.425,7.385,7.385,0,0,0,2.7.145,6.933,6.933,0,0,1,3.087.336c.122-.077.285-.189.521-.346l2.087-1.389,8.58-.154,5.207-6.7,2.479-2.835h1.963l2.083-3.052,1.57-2.833,7.292-1.129,2.6-.007-1.017-2.6.322-3.052-.792-4.284,1.052-4.008,4.506,1.264.975.586,1.391-1.391,1.323-1.779,1.194-1.318-1.255-2.286,1.529-1.613,1.818-7.423,1.587-4.457,1.839-4.532-2.917-3.356-.633-2.952,5.675-4.258h2.2l1.676-1.18-.376-.491.475-2.1,1.358-.809.078-1.346-1.367-.192-1.487.781-1.884,1.11-2.372-.147-5.715-1.526-5.8,1.6-2.281,1.423-2.578-.213-2.326-2.576-.512-3.155-.222-4.158-1.465-3.7-2.491-2.861-3.948-.447-3.915.572-3.347-2.293-1.484-.986-2.02-.253-5.191-.641-4.908-1.865-3.786-1.042-3.562.877-1.026,2.6,0,0Z" transform="translate(228.19 27.947)" fill="#bfdef8"></path><path id="Trazado_9283" data-name="Trazado 9283" d="M797.878,116.953l-2.954,2.955-1.264,6.815-1.559,6.105v5.5l-.675-.778c.112.6.308,1.461.641,2.66l1.889,6.769L793,152.019l-1.713,2.508v4.114l-.225.248a.528.528,0,0,0-.117.358c.038.157.29.413.886.664l2.969,1.251-.589,4.875.488,2.935,2.09,5.45v2.169l3.49,1.356,1.34,3.087,6.455,3.712,7.3-4.5h5.636l2.767-6.313.154.068.288-7.827a.667.667,0,0,1,.079-.288l2.1-3.892a.649.649,0,0,1,.428-.329l8.674-2.022,1.961-4.205,2.44-4.071-3.164-2.634-4.743-3.258a.658.658,0,0,1-.063-1.031l2.7-2.4,3.941-5.371-.222-1.554-4.861-3.429-8.666-5.679a.606.606,0,0,1-.177-.17l-3.6-5.091a.657.657,0,0,1,.418-1.022l6.365-1.157,5.859-6.622-2.1.066-3.735-.615-1.771-3.3-1.513-2.7-2.629-1.9-1.133-.629-1-.746-1.662-1.589-2.235-.811-2.214,1.029-1.426,2.034-.44-1.325-.1-1.028-.414-2.646L809.4,96.275l-1.54.3-1.447,1.452L804.764,99l-1.643.977-.556.115-1.313,11.6Z" transform="translate(66.409)" fill="#bfdef8"></path><path id="Trazado_9284" data-name="Trazado 9284" d="M1013.49,273.781c-1.075-.026-1.809-.044-2.241-.049a6.2,6.2,0,0,1-2.707.589c-2.141.232-3.011.851-3.364,1.33a1.214,1.214,0,0,0-.255.895l.147.76-.732.262-4.1,1.274H999.1l-1.788,1-.858,1.419,1.48,2.805-.975.327a9.943,9.943,0,0,1-2.947.544,3.02,3.02,0,0,1-2.085-.648l-2.146-1.015h-2.685l-5.72,1.309-1.016-2.477H978.52l-.711,9.3a.652.652,0,0,1-.46.577l-3.4,1.043.26,4.387,2.283,3.139a.66.66,0,0,1,.037.71l-2.394,4.195-1.563,4.455,3.4,1.83a.652.652,0,0,1,.187.15l1.8,2.1a.654.654,0,0,1,.156.465l-.3,5.091a.646.646,0,0,1-.154.385l-3.083,3.646.53,2.377.832,4.717,3.8,1.085a.655.655,0,0,1,.474.629v4.165l3.233,2.424,5.273,1.463a.692.692,0,0,1,.161.07l.862.517.171-3.018.533-2.241,1.293-1.708,1.631-2.651.512-3.064.757-5.485,4.3-3.683,1.348-1.021.1-2.019-.236-3.684,2.7-2.578,2.908-1.751,1.419-3.184,1.414-2.312,2.646-1.4,4.7-1.512,4.67-1.6,1.83-.842.842-1.867,1.222-3.156,3.4-.072,1.379.224.776-.715,1.779-3.52,3.137-2.248.912-.958-.054-1.159-3.953-4.368-5.105-3-3.3-2.085-4.149-.435Z" transform="translate(202.231 132.7)" fill="#2860ad"></path><path id="Trazado_9285" data-name="Trazado 9285" d="M896.055,350.851a.657.657,0,0,1-.593-.374l-2.069-4.354-1.414-4.474a.638.638,0,0,1-.031-.2V335.8c-.239-.8-1.954-6.448-2.407-7.889h-.005a32.367,32.367,0,0,0-5.721,1.286l-3.826.241-2.365,2.146-5.871,3.309a.661.661,0,0,1-.517.054.652.652,0,0,1-.393-.339l-1.9-3.911a.654.654,0,0,1,.18-.8l4.406-3.527-5.626-8.012a.643.643,0,0,1-.093-.187l-1.611-5.326-2.134-3.992a.647.647,0,0,1-.077-.308v-4.481l-3.632,2.262a.658.658,0,0,1-.9-.21l-1.5-2.4a.658.658,0,0,1,.177-.881l1.922-1.375.9-2.7c-1.188-.274-3.573-.815-4.67-1.035-.538-.091-2.676,1.6-4.466,3.677-.156.253-5.091,7.79-6.32,9.02l-2.37,2.669a.662.662,0,0,1-.491.22l-.045,0-7.683-.549V322.4a.66.66,0,0,1-.308.556l-4.212,2.634a.666.666,0,0,1-.35.1H823.69c-2.552,2.061-5.25,4.338-6.451,5.478,1.832.393,5.175,1.307,5.521,2.353a13.255,13.255,0,0,0,.83,1.3c1.424,2.09,2.491,3.775,2.183,4.88a6.86,6.86,0,0,0,.231,2.043c.343,1.774.734,3.782-.416,4.848-.689.638-.706,2.193-.725,3.994a27.089,27.089,0,0,1-.229,3.791,55.71,55.71,0,0,0-.286,8.7c.014.828.028,1.6.028,2.269a53.7,53.7,0,0,1-.8,8.295,10.167,10.167,0,0,1-1.369,2.823c-.192.325-.395.655-.6.977l2.066-1.325a.645.645,0,0,1,.407-.1l5.523.458a.729.729,0,0,1,.255.075l4.562,2.431H843.6l4.656-3.525a.712.712,0,0,1,.156-.086l8.746-3.452a.656.656,0,0,1,.9.61v2.56l3.814,1.676,1-1.529-1.346-2.893a.654.654,0,0,1,.094-.7l2.538-2.992a.68.68,0,0,1,.566-.229.658.658,0,0,1,.509.337l2.288,4.182,3.539-2.557a.638.638,0,0,1,.512-.112.652.652,0,0,1,.43.3l1.65,2.681h4.92l5.111-4.223a.7.7,0,0,1,.154-.094l.007,0,.005,0,7.343-3.24-.6-3.406a.66.66,0,0,1,.168-.563l3.452-3.681a.653.653,0,0,1,.841-.1l3.314,2.192h2.181l.393-3.558a.656.656,0,0,1,.652-.584h2.286l.89-2.749-2.092-2.384Z" transform="translate(86.077 150.636)" fill="#2860ad"></path><path id="Trazado_9286" data-name="Trazado 9286" d="M1045.393,204.437l.229-.783-.416-.189-1.8-.163a2.459,2.459,0,0,1-2.083-1.047,1.54,1.54,0,0,1-.192-.766l-1.8-1.8c-.952-.953-1.5-1.08-1.6-1.057l-.267.409-.367-.133-5.583-.152-6.413-4.822-7.232-6.872-3.193-1.6-3.1.327c-1.348.142-1.806.54-1.959.766a.667.667,0,0,0-.12.433l.031.231v9.4l-2.405,2.206c-1.1,1.012-1.3,1.194-1.823,1.1l-.428-.08-.2-.353a3.589,3.589,0,0,0-.809.077c-1.585.3-1.618.3-1.97.2a10.649,10.649,0,0,0-2.221-.01l-.168.007.454.194-4.838,3.146-3.726-2.384-2.489-2.644-3.772.821h-3.8l-1.351,3.716-1.678,2.1h-4.488l-4.534.8L966.62,211l-6.713,1.071,0-.021-1.737,1.986-1.312,1.751,2.63,1.435a.639.639,0,0,1,.239.224l2.1,3.293a.678.678,0,0,1,.1.3l.6,7.189-.9,6.437a.653.653,0,0,1-.465.535l-4.836,1.423-2.267,3.964a.65.65,0,0,1-.182.2l-4.1,3.013,1.587,4.766,6.331,5.467,4.934,1.161a.647.647,0,0,1,.276.14l4.195,3.6a.661.661,0,0,1,.119.133l3.141,4.712,4.882-2.639,3.3,1.762.995,1.143,4.74,1.321,2.7,2.174.979,1.938.219,2.155,4.789,1.861a.655.655,0,0,1,.414.676l-.528,5.268h2.849l1.739-2.234-.273-2.735.3-3.712a.657.657,0,0,1,.266-.474l4.494-3.295,5.64-2.394c.531-.825,1.183-2.253.917-3.043a.938.938,0,0,0-.687-.6.655.655,0,0,1-.432-.773l1.2-5.09a.656.656,0,0,1,.64-.505h9.763l4.612-10.1.786-3.462-3.1-3.948a.649.649,0,0,1-.136-.47l.232-2.318-4.114-.257a.655.655,0,0,1-.613-.654v-4.193a.657.657,0,0,1,.3-.551l5.093-3.295,9.115-3.359a.66.66,0,0,1,.226-.04h5.691a.654.654,0,0,1,.645.54l.472,2.592,6.121-1.664-.1-1.36a.658.658,0,0,1,.316-.613l2.774-1.664,1.036-3.63L1047,214a.641.641,0,0,1-.124-.287l-1.5-8.984A.644.644,0,0,1,1045.393,204.437Z" transform="translate(185.177 66.696)" fill="#bfdef8"></path><path id="Trazado_9287" data-name="Trazado 9287" d="M864.733,223.728a.657.657,0,0,1,.6-.178l9.882,2.1a.684.684,0,0,1,.227.094l3.127,2.085,2.84-3.1,2.651-6.185a.666.666,0,0,1,.309-.329l3.983-1.991,1.1-2.48.853-4.355a.666.666,0,0,1,.114-.257l2.4-3.295a.66.66,0,0,1,.388-.253l8.085-1.8,5.534-.014,7.526.288,1.161-1.161-1.694-1.933a.656.656,0,0,1,.03-.895l2.466-2.466-2.62-7.334-.9-4.175-2.038-3.567-5.07-.227-2.788.143-1.419.947h-4.406V178.9l-.811-.135-2.419,1.512h-2.587l-1.613-2.421-2.405-.481-4.686,3.069-2.847-1.828-.108-.2c-.023-.044-1.963-3.691-2.982-5.474l-3.55,1.847-1.947-2.943,1.369-2.756V166.2l1.874-2.489v-2.651l-.7-1.748-3.05-.675v-3.927h.108l-1.416-2.359-5.009-.262-4.882,6.028-5.441,7.451,2.835,6.241,1.222,3.658a.635.635,0,0,1,.021.343l-1.143,5.43,1.358,2.172a.655.655,0,0,1-.154.865l-4.957,3.854,2.138,4,1.837,5.182a.664.664,0,0,1,.035.175l.3,4.492-.3,5.173-.608,3.085a.616.616,0,0,1-.059.164,17.153,17.153,0,0,0-1.433,4.293,49.99,49.99,0,0,0-.061,6.285l.121.456-.1.028c.012.327.025.62.033.821l4.162,2.22a.581.581,0,0,1,.154.115l2.234,2.232Z" transform="translate(112.936 41.738)" fill="#bfdef8"></path><path id="Trazado_9288" data-name="Trazado 9288" d="M865.184,251.706l.288,5.2,3.15,4.464,3.155-1.7.517-1.55a.652.652,0,0,1,.414-.414l5.1-1.7,2.583-6.6a.665.665,0,0,1,.318-.348l4.193-2.1a.631.631,0,0,1,.383-.065l8.146,1.126,1.325-3.976a.649.649,0,0,1,.358-.393l10.555-4.567-.353-1.237-3.3-1.375a.657.657,0,0,1-.3-.958l2.012-3.16.287-3.136a.653.653,0,0,1,.652-.6h1.108l-.432-.565a.663.663,0,0,1-.135-.4v-4.212l-.575-3.843-3.249-6.115-.776-2.676a.652.652,0,0,1,.052-.486l1.423-2.692-4.476-4.6a.672.672,0,0,1-.122-.175l-1.923-4.006-5.371-5.918-.8,1.858a.664.664,0,0,1-.119.184l-3.295,3.6a.653.653,0,0,1-.846.1l-3.49-2.325-9.412-2-3.134,3.134.582,10.19a.662.662,0,0,1-.058.313l-1.737,3.763V217a.657.657,0,0,1-.08.315l-1.8,3.295a.64.64,0,0,1-.245.252l-3.522,2.054-2.422,2.422.28,3.593-.3,2.527a.659.659,0,0,1-.323.486l-5.689,3.295-7.063,6.794-2.674,1.542,6.507.93a.666.666,0,0,1,.411.229l2.782,3.338,4.156-.278a.641.641,0,0,1,.694.572l.143,1.138,2.657-2.436a.666.666,0,0,1,.528-.168.649.649,0,0,1,.467.3l2.7,4.193A.654.654,0,0,1,865.184,251.706Z" transform="translate(106.118 72.286)" fill="#bfdef8"></path><path id="Trazado_9289" data-name="Trazado 9289" d="M1055.817,223.118a.651.651,0,0,1-.187-.528l.189-1.9-3.656.664L1050.107,223h-3.02l-1.592-1.945h-4.525v-3.744l-1.55-4.82-1.562-3.637-.052-.119a1.754,1.754,0,0,1-1.32.091,16.127,16.127,0,0,1-2.477-.78l-.467-.246V205.1l-1.884-2.319-5.909-.774-4.31-3.436-2.139-8.384-3.307-3.621h-9.242l-6.131-3.938,2.739-5.016,3.625-1.9,1.662-5.485,1.161-5.5-1.292-3.13-1.811,2.153h-4.345l.944-3.922v-2.328l-2.167-2.344-1.288-2,1.07-5.993-.014-4.864-1.68-6.58a4.778,4.778,0,0,1-1.779.675l-.755,1.762-2.468,3.422a.663.663,0,0,1-.465.267l-11.132,1.141-.559,7.837a.657.657,0,0,1-.227.451l-3.983,3.413-.283,4.217-1.519,5.523-.565,4.873.519,2.078,4.334,3.759a.648.648,0,0,1,.222.575l-.9,7.189a.653.653,0,0,1-.171.365l-4.193,4.494a.661.661,0,0,1-.481.208l-.028,0-6.589-.3-6.442-1.823a.649.649,0,0,1-.4-.336l-1.029-2.055-5.009-.278a.707.707,0,0,1-.208-.047l-3.433-1.374,1.031,6.958,1.194,6.872a.649.649,0,0,1-.121.507l-1.435,1.912,2.244,2a.636.636,0,0,1,.194.309l1.2,4.193a.652.652,0,0,1-.3.746l-5.691,3.3a.668.668,0,0,1-.327.087,5.579,5.579,0,0,0-1.674,1.832l1.1,3.295a.635.635,0,0,1,.012.374l-1.449,5.509a3.617,3.617,0,0,1-.093,2.789,1.393,1.393,0,0,1-1.187.577.654.654,0,0,1-.364-.11l-1.8-1.2a.653.653,0,0,1-.276-.407l-.363-1.7-1.031,3.436.294,5.575a.664.664,0,0,1-.086.365l-1.9,3.249,1.795,2.819,3.819,2.183,5.431-1.43a.655.655,0,0,1,.591.135l3.892,3.295a.654.654,0,0,1,.21.327l.807,2.968,2.976,1.08,5.946,3.945,5.792-.925,2.651-5.476,5.568-.96,3.794-.012,1.063-1.325,1.57-4.488H991.7l4.459-1,3.1,3.288,2.515,1.587,1.5-.975a1.1,1.1,0,0,1-.143-.767c.17-.956,1.323-1.2,3.13-1.274a8.981,8.981,0,0,1,2.776.077,11.032,11.032,0,0,1,1.169-.239,3.29,3.29,0,0,1,1.972.079l.428-.395,1.839-1.685v-8.552a2.4,2.4,0,0,1,.393-1.734,4.21,4.21,0,0,1,3.218-1.517l3.614-.381,3.978,2.031,7.251,6.9,5.888,4.422,4.689.128a1.7,1.7,0,0,1,.75-.259c.886-.094,1.868.419,3.011,1.561l2.567,2.568-.206.409a2.257,2.257,0,0,0,.636.131l2.229.252.327.149.769-2.616a.64.64,0,0,1,.311-.386l5.166-2.872.519-1.556,2.146-3.518-3.116-2.339Z" transform="translate(178.511 29.498)" fill="#bfdef8"></path><path id="Trazado_9290" data-name="Trazado 9290" d="M871.32,323.957a.65.65,0,0,1,.323.5l.262,2.622,3.553,1.638,6.974,4.539,4.541,3.632a.6.6,0,0,1,.152.175l2.58,4.3,4.578,1.715a.664.664,0,0,1,.379.371l1.005,2.512,4.675-.7-.615-1.638a.661.661,0,0,1,.089-.622.575.575,0,0,1,.568-.262l9.284.6a.655.655,0,0,1,.608.58l.253,2.269,3.26,1,4.277-1.713,3.186-2.04a.69.69,0,0,1,.217-.087l4.191-.9a.581.581,0,0,1,.232-.009l7.785,1.154,2.466-2.193a.653.653,0,0,1,.435-.166h9.434l6.156-2.931a.634.634,0,0,1,.246-.063l5.392-.3a.61.61,0,0,1,.5.191l2.4,2.394,1.047,1.556,5.2-.743-.465-2.316a.659.659,0,0,1,.4-.738l7.183-2.872,1.412-5.371a.655.655,0,0,1,.505-.477l7.129-1.426,1.6-4.273-1.045-5.228-6,.544a.648.648,0,0,1-.5-.168.655.655,0,0,1-.213-.484V315.2l-3.718-4-3.2-2.311a.657.657,0,0,1-.2-.825l1.8-3.593,1.372-2.2-1.119-3.915a.692.692,0,0,1-.016-.294l.9-5.091a.657.657,0,0,1,.194-.362l5.29-5-4.013-5.313-5.745-1.15a.648.648,0,0,1-.441-.316l-2.108-3.686-3.717-.86a52.083,52.083,0,0,0-7.631.792,10.361,10.361,0,0,0-2.384.6l.773.406-2.326,3.274L947.681,281a6.906,6.906,0,0,0-.76-.044l-.911,3.191c-.446,1.559-.526,1.839-1.056,2.022l-.43.147-.493-.318a3.514,3.514,0,0,0-.8.489c-2.314,1.771-3.753,1.265-4.352.872l-2.374-.262-3.226.005-2.9,1.1h-7.222l-3.8-2.323-1.741-2.323-.135-.178a2.176,2.176,0,0,1-1.381.075c-.374-.08-.591-.129-.729-.154a6.952,6.952,0,0,1-2.241.316c-1.6.075-2.026.093-2.29-.557a1.032,1.032,0,0,1,.4-1.187c.348-.308.565-.551.423-1.08-.323-1.22-.393-1.472-.04-1.868l.311-.351.1.01c.019-.061.037-.138.056-.232a3.83,3.83,0,0,1,3.214-2.763l.156-.909,2.576-3.179a1.437,1.437,0,0,1-.433-.814c-.138-.7-1.094-1.286-1.634-1.542l-3.1.659-1.977,2.716-2.582,3.169-2.732.648-4.1-2.045-6.794-1.36-11.245,7.353-.956-1.465,11.843-7.741,7.828,1.6,3.635,1.814,1.538-.364,2.176-2.671,2.344-3.221,4.275-.911.238.091a5.117,5.117,0,0,1,2.831,2.508l.01-.007a.929.929,0,0,1,1.293.112c.5.589.318.809-1.073,2.527l-2.325,2.87-.3,1.771-.7.037c-.017,0-2.017.142-2.305,1.487a2.87,2.87,0,0,1-.542,1.272c.026.1.058.217.094.351a2.622,2.622,0,0,1-.019,1.515,4.57,4.57,0,0,0,1.4-.185c.418-.211.594-.171,1.734.072.051.012.094.019.131.024a.9.9,0,0,1,.645-.629c.62-.15.823.1,1.772,1.372l1.638,2.183,2.983,1.762h6.423l3.06-1.1h3.485l3.046.332.226.257c.129.1.877.236,2.293-.846a3.132,3.132,0,0,1,1.991-.846c.045-.161.1-.353.168-.585l.786-2.751a1.245,1.245,0,0,1,.117-.975c.486-.82,1.674-.786,2.651-.676l1.954.231.683-.956a1.4,1.4,0,0,1-.316-1.089c.161-1.042,1.351-1.65,4.112-2.1a48.737,48.737,0,0,1,8.04-.814l3.158.717-.243-4.6a.654.654,0,0,1,.4-.64l2.976-1.239-2.124-4.777-6.238-9.49-3.826-4.106a.655.655,0,0,1-.148-.634l.872-2.9v-5.238h-5.035l-4.672.888a.7.7,0,0,1-.121.01.656.656,0,0,1-.245-.047l-4.492-1.8a.654.654,0,0,1-.341-.9l1.108-2.218-.2-1.575-6.561.547-6.643,0a.656.656,0,0,1-.313-.08l-3.3-1.8a.662.662,0,0,1-.15-.112l-2.319-2.321-5.135-2.566-7.905.586a.666.666,0,0,1-.362-.079l-3.169-1.729-7.828-.58-7.073,2.062-6.743.325a.683.683,0,0,1-.54-.243.654.654,0,0,1-.122-.58l1.007-3.775-7.75-1.07-3.786,1.895-2.6,6.652a.661.661,0,0,1-.4.385l-5.079,1.692-.5,1.486a.661.661,0,0,1-.309.371l-3.894,2.1a.655.655,0,0,1-.846-.2l-3.13-4.431-3.492,3.742-.832,7.467,3.852,2.477a.65.65,0,0,1,.3.53l.3,8.984,1.18,4.656.016,7.166,7.035,2.249a.656.656,0,0,1,.446.739l-.846,4.778,1.952,2.2,9.894-1.416,1.935-2.211a.678.678,0,0,1,.558-.22.654.654,0,0,1,.5.325l1.2,2.1,1.814,3.625a.653.653,0,0,1-.163.793l-3.52,2.978,1.9,4.345a.659.659,0,0,1-.04.6l-2.7,4.492a.641.641,0,0,1-.683.306l-4.216-.79-.963,3.132,1.43,4.294a.648.648,0,0,1-.2.711l-4.623,3.808,3.246,4.595a.656.656,0,0,1-.033.8l-3,3.593a.645.645,0,0,1-.169.145l-4.957,2.917-.848,1.318c.037.012.077.005.11.024Zm7.657-92.884-.005-.009.007,0ZM879,260.688v-.145c.031.016.068.038.1.052Z" transform="translate(113.132 95.939)" fill="#2860ad"></path><path id="Trazado_9291" data-name="Trazado 9291" d="M981.264,259.776a.668.668,0,0,1-.392.189l-3.745.416,1.071.8a.652.652,0,0,1-.028,1.068l-4.494,3a.638.638,0,0,1-.3.108l-6.288.6a.669.669,0,0,1-.5-.168.658.658,0,0,1-.215-.486v-1.5l-5.4-.47.405,1.825a.655.655,0,0,1-.472.776l-5.691,1.5-5.754.912a.705.705,0,0,1-.3-.023l-7.488-2.394a.658.658,0,0,1-.456-.626v-3.16l-4.663.517-5.979.287-1.619,2.7a.7.7,0,0,1-.11.138l-5.233,4.941-.835,4.73,1.155,4.05a.645.645,0,0,1-.073.524l-1.5,2.4-1.519,3.045,2.845,2.068,3.987,4.277a.663.663,0,0,1,.177.446v2.879l5.874-.535a.637.637,0,0,1,.7.524l1.2,5.99a.646.646,0,0,1-.03.358l-1.8,4.791a.658.658,0,0,1-.486.412l-7.087,1.417-1.208,4.588,7.222,1.068,4.06-1.157a.654.654,0,0,1,.825.523l.883,5.3,4.156,8.9a.649.649,0,0,1,.058.341l-.6,5.99a.651.651,0,0,1-.318.5l-6.016,3.553,2.838,4.646,2.6,1.112,6.643-4.471,5.707-5.82,3.412-4.09,2.16-1.4.862-1.4V321.94l4.574.76,4.083,1.267,5.056-1.771,3.132-2.564,4.105.084,1.554.736,1.727,2.172,3.188-.468,1.59-1.959v-3.135l-.965-3.725.315-4.434.685-2.326.876-3.656,3.642-3.06,1.1-1.218a2.1,2.1,0,0,1,.872-1.363,3.333,3.333,0,0,1,3.162.049l2.517,1.017,2.48-1.168,2.966,1.323,5.474,3.826.886,3.441,2.7-.828,1.164-15.127-.259-3.787h-4.287l-3.134,1.994a.655.655,0,0,1-.727-.016l-3-2.1-4.864-4.553a.641.641,0,0,1-.171-.271l-.9-2.7a.649.649,0,0,1,.229-.731l4.5-3.373-.563-5.923a.651.651,0,0,1,.067-.357l1.643-3.288c-.482-.855-1.6-2.482-2.662-2.658l-4.473-.6a.647.647,0,0,1-.17-.047l-4.195-1.8-4.1-1.643-2.1,1.832a.655.655,0,0,1-1.087-.493v-4.406Z" transform="translate(163.548 118.623)" fill="#2860ad"></path><path id="Trazado_9292" data-name="Trazado 9292" d="M929.6,264.209l3.655,1.463,4.605-.865,5.408-.009,1.316-2.634,2.845-6.264-2.487-4.424-3.531-3.531a.65.65,0,0,1-.168-.643l1.11-3.884-6.4-8.727-3.562-4.153a.661.661,0,0,1-.135-.257L931.12,226l-3.718-2.858a.663.663,0,0,1-.255-.521v-9.284l.3-4.535a.641.641,0,0,1,.094-.3l4.01-6.587-2.248-4.771a.656.656,0,0,1-.058-.2l0-.019-3.389-3.177-1.922-1.923-2.167,2.408-1.755,3.8a.663.663,0,0,1-.411.355l-4.871,1.431-1.793,2.562.528,2.106a.657.657,0,0,1-.362.753,48.568,48.568,0,0,1-7.363,2.674l-1.809,2.587.561,3.936a.651.651,0,0,1-.32.657l-3.592,2.1a.659.659,0,0,1-.33.089,6.459,6.459,0,0,0-4.389,1.662l.544,3.265a.664.664,0,0,1-.033.341l-2.4,6.289a.66.66,0,0,1-.343.364l-3.295,1.5a.625.625,0,0,1-.271.059h-5.99l-.246,2.7a.646.646,0,0,1-.1.292l-1.678,2.637,2.877,1.2a.662.662,0,0,1,.378.425l.6,2.1a.653.653,0,0,1-.372.781l-10.808,4.674-1.4,4.191-.965,3.614,5.7-.259,7.033-2.071a.642.642,0,0,1,.231-.024l8.087.6a.647.647,0,0,1,.267.077L896.8,253.4l7.891-.586a.7.7,0,0,1,.343.068l5.392,2.7a.688.688,0,0,1,.17.122l2.326,2.33,3.067,1.671h6.421l7.133-.6a.632.632,0,0,1,.7.572l.3,2.4a.658.658,0,0,1-.065.374Z" transform="translate(127.298 71.455)" fill="#2860ad"></path><path id="Trazado_9293" data-name="Trazado 9293" d="M972.728,302.473l-4.116-8.823a.656.656,0,0,1-.052-.17l-.778-4.667-3.489.994a.585.585,0,0,1-.274.019l-7.909-1.171-6.82,2.727.493,2.461a.655.655,0,0,1-.551.776l-6.29.9a.643.643,0,0,1-.638-.285l-1.2-1.8-2.1-2.089-4.972.274-6.172,2.942a.656.656,0,0,1-.283.063h-9.333l-2.51,2.232a.649.649,0,0,1-.531.157l-7.97-1.18-3.96.848-3.195,2.033-4.6,1.854a.669.669,0,0,1-.437.016l-3.892-1.2a.657.657,0,0,1-.46-.554l-.239-2.15-7.724-.5.544,1.447a.656.656,0,0,1-.517.879l-2.295.344,1.626,5.009,1.309,3.254a.661.661,0,0,1,.014.453l-.776,2.3a.678.678,0,0,1-.208.3l-2.414,1.958-1.737,2.192v13.946h1.4a.659.659,0,0,1,.626.456l.524,1.646a.661.661,0,0,1,.031.2v2.746a.658.658,0,0,1-.119.378,7.888,7.888,0,0,0,.57.891l1.374,1.921a.648.648,0,0,1,.108.5l-.341,1.825,1.636,1.4a.671.671,0,0,1,.194.292l1.236,3.709,1.236,2.075,3.032,1.975a.654.654,0,0,1,.227.257l.64,1.316a.743.743,0,0,1,.061.086c.009.023.007.045.016.07l1.445,2.973h2.882l2.819-.5,1.881-2.115v-3.323a.657.657,0,0,1,.614-.654l2.059-.136,1.673-.493,2.38-1.718a.633.633,0,0,1,.147-.08l2.3-.895,3.045-3.974a.656.656,0,0,1,.283-.211l2.471-.961a.656.656,0,0,1,.641.094l1.923,1.512a.613.613,0,0,1,.14.152l1.426,2.136,2.851-.343,1.092-.848a.674.674,0,0,1,.169-.1l8.239-3.16a.693.693,0,0,1,.232-.042h2.545a.648.648,0,0,1,.3.072l2.643,1.354,6.217-3.233v-3.167a.648.648,0,0,1,.052-.257l2.061-4.806,2.354-4.574a.669.669,0,0,1,.119-.163l10.3-10.3,1.559-1.278a.643.643,0,0,1,.381-.147l2.609-.138a.514.514,0,0,1,.191.016l3.342.828,6.072-3.588Z" transform="translate(131.716 143.86)" fill="#2860ad"></path><path id="Trazado_9294" data-name="Trazado 9294" d="M910.983,353.991a.723.723,0,0,1-.208-.217l-1.372-2.333-1.234-3.662-1.785-1.529a.653.653,0,0,1-.217-.62l.358-1.921-1.211-1.7c-.788-1.1-1.166-1.849-.766-2.384a.677.677,0,0,1,.072-.084V337.34l-.35-1.094h-1.58a.654.654,0,0,1-.655-.655V320.76a.655.655,0,0,1,.143-.409l1.978-2.471,2.365-1.937.64-1.891-1.234-3.071-1.709-5.261-2.38.358a.661.661,0,0,1-.706-.405l-1.091-2.725-4.52-1.7a.661.661,0,0,1-.332-.276l-2.636-4.392-4.4-3.522-6.837-4.455-3.81-1.75a.653.653,0,0,1-.378-.53l-.267-2.664-6.724-3.922-.454.033-.03.045a.65.65,0,0,1-.9.2.615.615,0,0,1-.171-.164l-2.1.15-1.32,2.113-2.73,3.641a.658.658,0,0,1-.479.259l-4.224.283-2.08,2.339-.575,5.182a.656.656,0,0,1-.458.554l-3.894,1.2-4.431,2.477,2.861,2.382a.642.642,0,0,1,.173.225c4.647,9.919,4.044,10.826,3.845,11.125-.662.995-3.843,2.274-4.8,2.643l-3.63,2.26v5.133l2.106,3.967,1.629,5.341,5.923,8.43a.656.656,0,0,1-.128.89l-4.479,3.583,1.367,2.817,5.146-2.884,2.412-2.213a.655.655,0,0,1,.4-.17l3.912-.231c6.669-2,6.923-1.253,7.1-.7.229.689,2.442,7.991,2.538,8.3a.685.685,0,0,1,.026.189v5.654l1.351,4.294,1.858,3.894H882.4a.654.654,0,0,1,.493.224l2.534,2.887a.656.656,0,0,1,.129.634l-.2.622c.014.012.035.007.049.021l2.968,3.045h2.209l1.861-1.4,1.445-2.887a.657.657,0,0,1,.585-.362h2.164a.662.662,0,0,1,.253.051l2.054.865a.668.668,0,0,1,.381.439l.757,2.919.582,1.188,1.858-1.643.409-3.246a.656.656,0,0,1,.136-.325l4.286-5.409a.667.667,0,0,1,.224-.184l2.854-1.4,2.321-1.772,1.542-.692-.3-.607Z" transform="translate(106.64 137.195)" fill="#2860ad"></path><path id="Trazado_9295" data-name="Trazado 9295" d="M976.966,235.315l-2.183-1.68L970,232.376l-1.238-1.423-2.069-1.061-4.581,2.477-.035-.065-.877,1.753,1.3,4.431,7.057.846,4.633-.6a.659.659,0,0,1,.683.391l.446,1.042,2.547-1.592-.2-1.97Z" transform="translate(193.73 99.917)" fill="#bfdef8"></path><path id="Trazado_9296" data-name="Trazado 9296" d="M881.95,221.816l.659,2.309.872,1.72,2.368,4.343a.643.643,0,0,1,.072.218l.6,4.057.007,4.085.9,1.183h3.693l2.919-1.327,2.237-5.873-.57-3.419a.666.666,0,0,1,.149-.535,7.613,7.613,0,0,1,5.409-2.323l3.062-1.786-.536-3.756a.647.647,0,0,1,.112-.468l2.1-3a.659.659,0,0,1,.379-.26,47.4,47.4,0,0,0,6.877-2.429l-.467-1.867a.658.658,0,0,1,.1-.535l2.1-2.994a.658.658,0,0,1,.355-.253l4.8-1.412,1.673-3.625a.632.632,0,0,1,.108-.163l2.7-3a.654.654,0,0,1,.47-.217.723.723,0,0,1,.48.191l2.4,2.4,2.221,2.082-.343-2.735a.659.659,0,0,1,.169-.526l3.6-3.894a.709.709,0,0,1,.523-.21l4.693.294,5.462-1.3-1.65-4.247-5.219.274a.605.605,0,0,1-.5-.19l-2.4-2.4a.66.66,0,0,1-.191-.465v-4.4l-8.639-4.605-3.753-2.678-2.81,3.578-.57,2.842a.655.655,0,0,1-.5.51l-3.892.9a.656.656,0,0,1-.552-.122l-6.888-5.388-1.991-1.987-.079.079.1.273a.656.656,0,0,1-.4.837.643.643,0,0,1-.22.038.633.633,0,0,1-.432-.194l-1.666,1.666,1.692,1.933a.656.656,0,0,1-.03.895l-1.795,1.8a.629.629,0,0,1-.49.192l-7.786-.3-5.367,0-7.7,1.727-2.166,2.978-.869,4.35-1.243,2.833a.667.667,0,0,1-.306.322l-3.978,1.989-1.239,2.887,5.838,6.432a.639.639,0,0,1,.107.157l1.919,3.994,4.735,4.866a.658.658,0,0,1,.108.764Z" transform="translate(126.104 61.182)" fill="#bfdef8"></path><path id="Trazado_9297" data-name="Trazado 9297" d="M888.451,148.435l-2.817,2.256-1.445,6.07a.671.671,0,0,1-.147.281l-4.163,4.719,2.428,3.777a.649.649,0,0,1,.1.393l-.28,4.756,3.034,2.485a.651.651,0,0,1,.24.47l.293,5.242,3.125,5.686,7.911,4.1a.657.657,0,0,1,.351.531l.278,3.614,4.876,4.016a.654.654,0,0,1,.238.46.67.67,0,0,1-.171.489l-3.295,3.593a.636.636,0,0,1-.145.119l-3,1.8-3.866,1.3,2,3.5a.616.616,0,0,1,.072.189l.9,4.191,2.386,6.666.1-.1a.658.658,0,0,1,.93,0l2.395,2.4,6.58,5.144,3.177-.732.516-2.58a.644.644,0,0,1,.128-.276l3.295-4.193a.656.656,0,0,1,.895-.129l2.118,1.514,5.6-4.366,2.851-1.61,3.205-5.7a.669.669,0,0,1,.17-.194l3.062-2.38,2.961-3.123-2-4.13a.656.656,0,0,1,.591-.94h2.927a.656.656,0,0,1,.624.451l1.187,3.6,3.448-2.978a45.748,45.748,0,0,1,5.1-5.843l2.272-2.111-1.458-5.343-2.443-.977a.667.667,0,0,1-.283-.217l-2.2-2.949a.678.678,0,0,1-.124-.292l-.731-4.742a.661.661,0,0,1,0-.211l1.283-7.323a37.8,37.8,0,0,0,.547-4,.685.685,0,0,1-.2-.063.655.655,0,0,1-.292-.877l.023-.044,1.335-2.618-1.374-3.2a.682.682,0,0,1-.052-.259v-2.928a.644.644,0,0,1,.1-.348l2.643-4.231-1.377-.862-6.844-3.567a.655.655,0,0,1-.348-.521,6.626,6.626,0,0,0-.692-2.741,13.956,13.956,0,0,1-3.625-1.174l-4.7-.587a.653.653,0,0,1-.54-.856l.9-2.7a.653.653,0,0,1,.4-.411l4.193-1.5a.662.662,0,0,1,.5.024l5.338,2.529,2.748-2,.211-1.891-4.6-1.624a.652.652,0,0,1-.428-.51l-.6-3.593.262-3.88-3.642-1.561h-4.957l-6.678-.905-5.516.005-4.17,1.113-2.858,4.286a.655.655,0,0,1-.292.241l-6.984,2.91-1.985,3.4-1.942,2.169,3.553.444a.648.648,0,0,1,.238.079c1.833,1.031,4.967,2.741,5.579,2.943a.949.949,0,0,1,.53.6c.072.339.234,1.138-4.8,5.609a.64.64,0,0,1-.327.156l-3.6.6a.65.65,0,0,1-.661-.3l-1.333-2.1-.781,2.536a.656.656,0,0,1-.58.461l-4.191.3a.656.656,0,0,1-.615-.329l-1.12-1.961-1.3,3.088A.675.675,0,0,1,888.451,148.435Z" transform="translate(132.918 19.176)" fill="#bfdef8"></path><path id="Trazado_9298" data-name="Trazado 9298" d="M935.993,154.207a.659.659,0,0,1-.731-.276l-3.144-4.889a.658.658,0,0,1-.047-.62l.967-2.176-3.546-2.216-.676,2.72a.648.648,0,0,1-.729.489l-4.195-.6a.654.654,0,0,1-.556-.741l.3-2.1.776-2.611-4.275-2.672-2.545,4.072V145.2l1.442,3.356a.652.652,0,0,1-.019.556l-1,1.957c.248.531.212,1.853-.435,5.547l-1.264,7.217.692,4.474L919,170.972,921.574,172a.649.649,0,0,1,.388.435l1.416,5.193,2.129-1.362a.643.643,0,0,1,.245-.094l3.712-.619v-2.945a.655.655,0,0,1,.271-.531l3.478-2.519a.666.666,0,0,1,.252-.112,1.047,1.047,0,0,1,.886.267c.652.556.917,1.872.818,4.023a5.507,5.507,0,0,1-.814,3.029c.1.075.225.161.351.248l1.648,1.155,4.476-.177,2.223-5.8a.655.655,0,0,1,.343-.362l4.759-2.171a1.947,1.947,0,0,1,.965-1.589c.932-.46,2.186.023,3.943,1.521l4.029,3.436,5.923,6.273,1.982.152,3.017-1.085-2.263-2.265a.652.652,0,0,1-.185-.568.66.66,0,0,1,.353-.481l4.792-2.4a.677.677,0,0,1,.171-.056l5.8-1.106.234-2.594-1.828-3.136-4.174-.558a.662.662,0,0,1-.378-.185l-2.4-2.4a.665.665,0,0,1-.182-.348l-.566-3.118-3.246-3.789-4.141.552-7.872.005-5.217-1.117C944.468,154.5,937.611,153.746,935.993,154.207Z" transform="translate(160.167 31.589)" fill="#bfdef8"></path><path id="Trazado_9299" data-name="Trazado 9299" d="M895.337,176.17a.638.638,0,0,1,.544-.241l5.691.3a.647.647,0,0,1,.526.318l1.229,2.045,1.491-2.557.874-3.5-.019-24.7.912-4.621a.653.653,0,0,1,.25-.395l4.792-3.593,4.6-4.336-.7-9.169-2.316-2.512-2.391-3.758-.044-.019-1.788-.246-2.089-.745-2.22.208-3.3-.184-3.894,4.1-5.511,1.323-3.513.232-1.164.073a4.6,4.6,0,0,1-1.653.538c-2.293.491-2.762,1.213-2.767,1.22l-.166.423-.414.038-3.576.841-1.328.313a6.173,6.173,0,0,1-.953.309c-1.7.465-2.625.35-3.118.031h-1.755l-1.781,2.1-5.4,1.965-7.138-3.223-1.8-4h-2.943l-5.678,4h-9.487l-1.419,2.134-4.343,4.651h-5.277l-2.373,3.955-2.064,4.432a.66.66,0,0,1-.446.362l-8.7,2.027-1.884,3.5-.276,7.439,8.812,2.844,5.916,1.178a.652.652,0,0,1,.514.509l1.5,7.189a.685.685,0,0,1-.024.351l-1.767,5.007-.294,4.106c0,.012-.009.021-.01.033l4.112.454,6.481-1.473a.638.638,0,0,1,.224-.012l7.486.9,12.561,1.2,9.13,3.025,6.143.568,4.474.3a.651.651,0,0,1,.362.138l5.691,4.494,3.008,1.748,5.341-7.311Z" transform="translate(81.089 16.572)" fill="#bfdef8"></path><path id="Trazado_9300" data-name="Trazado 9300" d="M922.072,133.528a.657.657,0,0,1,.433.69l-.3,2.7a.653.653,0,0,1-.266.458l-3.295,2.4a.657.657,0,0,1-.666.061l-5.446-2.578-3.635,1.3-.544,1.634,4,.5a.667.667,0,0,1,.183.051,14.881,14.881,0,0,0,3.326,1.143c1.157,0,1.627,1.842,1.814,3.532l6.577,3.429,7.232,4.518a.657.657,0,0,1,.28.745l-.9,2.994-.189,1.353,2.961.421.755-3.02a.656.656,0,0,1,.984-.4l4.792,3a.655.655,0,0,1,.25.821l-1.052,2.372,2.711,4.217c2.332-.329,8.131.322,10.28.584v-1.769l-2.393-2.393a.656.656,0,0,1-.19-.463V158.24a.656.656,0,0,1,.655-.655h2.863l4.831-1.79v-1.531l1.41-5.918a.66.66,0,0,1,.121-.252l2.443-3.12v-2.5l-4.494-3.184-4.23-1.669h-8.512a.658.658,0,0,1-.6-.381l-1.19-2.583a.659.659,0,0,1,.059-.654c1.344-1.9,2.234-3.286,2.758-4.135h-2.842l-2,3.408a.655.655,0,0,1-.565.323.571.571,0,0,1-.133-.014l-4.572-.947-5.852-.185a.654.654,0,0,1-.44-.192l-2.188-2.186a.666.666,0,0,1-.149-.225l-2.5-6.442a.644.644,0,0,1-.045-.238v-2.054l-1.353.928-1.127,1.517a.66.66,0,0,1-.355.241l-4.7,1.269-.266,3.728.526,3.057Zm11.785,13.951a.656.656,0,0,1,.655-.655h10.108a.654.654,0,0,1,.615.428l1.161,3.15a.653.653,0,0,1-.079.6l-.692.98V154.8a.661.661,0,0,1-.245.51l-1.3,1.045a.663.663,0,0,1-.412.145.678.678,0,0,1-.143-.016.657.657,0,0,1-.446-.355l-.423-.87-4.214-.863a.666.666,0,0,1-.267-.122l-4.065-3.125a.651.651,0,0,1-.257-.519Z" transform="translate(154.212 18.578)" fill="#bfdef8"></path><path id="Trazado_9301" data-name="Trazado 9301" d="M931.769,142.482a.662.662,0,0,1,.46.357l.2.419.411-.332V140.22a.663.663,0,0,1,.119-.379l.615-.867-.884-2.4h-9v2.171l3.691,2.835Z" transform="translate(165.684 30.136)" fill="#bfdef8"></path><path id="Trazado_9302" data-name="Trazado 9302" d="M1005.557,254.263l-7.646-.9a.655.655,0,0,1-.549-.467l-1.5-5.091a.651.651,0,0,1,.044-.479l1.028-2.054-3.333-5-4-3.431-4.936-1.161a.679.679,0,0,1-.278-.142l-6.587-5.691a.665.665,0,0,1-.194-.288l-1.795-5.39c-.005-.016,0-.03,0-.044l-.224.058-2.026-7.722-5.617-2.725-3.625-2.069-4.747.343a9.383,9.383,0,0,0-3.151.582l.241.315-2.816,2.346-4.366,3.457-2.141,1.482-2.057,1.533v3.511l-3.8-1.9c-.089-.045-.169-.087-.245-.124a2.681,2.681,0,0,1-1.437.977c-1.895.654-2.873.4-3.363.047h-3.849l-1.739,2.966-1.73,11.118-3.011,3.746-3.838-1.383-4.184,1.159-2.751,6.051-1.438,2.879v5.834a.628.628,0,0,1-.028.189l-.792,2.636,3.639,3.917,6.357,9.67,2.447,5.485a.654.654,0,0,1-.346.87L922,280.693l.267,5.074,2.171,3.8,5.7,1.14a.653.653,0,0,1,.4.248l3.854,5.1,1.05-1.753a.657.657,0,0,1,.531-.316l6.29-.3,5.348-.594a.675.675,0,0,1,.509.164.656.656,0,0,1,.219.488v3.415l6.885,2.2,5.535-.872,5.016-1.323-.463-2.082a.666.666,0,0,1,.147-.575.644.644,0,0,1,.549-.222l6.89.6a.659.659,0,0,1,.6.654v1.377l5.406-.516,3.585-2.389-1.653-1.243a.656.656,0,0,1,.322-1.176l5.161-.573,5.547-5.549-.2-3.2-2-3.151a.655.655,0,0,1,.372-.98l3.85-1.1,1.094-3.553a.662.662,0,0,1,.7-.46l4.518.533.759-3.034a.649.649,0,0,1,.171-.306l3.677-3.676-.271-2.989,0-5.75a.653.653,0,0,1,.362-.586l4.791-2.4.517-.323-.332-.774Z" transform="translate(157.739 86.29)" fill="#2860ad"></path><path id="Trazado_9303" data-name="Trazado 9303" d="M1101.216,188.006h-8.033l-2.19-1.547-1.258-1.4-1.886-1.653c-.512-.453-.858-.572-1.033-.544-.121.026-.22.189-.241.232l-.358.778-.8-.322-3.447-1.514-1.094-3.721,5.962-.94,1.409-1.734v-7.285l-4.16-4.034-11.137-2.228-5.93.629v-3.134l-.469-3.62.4-3.983-4.2-1.057.213-.848h0l-1.825-1.19-2.262,1.589h-2.169l-4.315,3.237.3,1.417,3.33,3.826-2.234,5.492-1.547,4.336-1.9,7.788-.97,1.022,1.243,2.262-1.982,2.178-1.351,1.809-2.44,2.45-2.041-1.225-2.466-.673-.507,1.924.769,4.147-.3,2.879,1.793,4.584h-.577l-.946,4.3,2.132,1.479,1.964,2.756.821,4v2.554l4.864,3.316-.662.743c0,.009-.579.806.164,2.723l.975,2.524-.823.318,3.585-1.155,11.5-3.179,4.118-1.458,2.753-3.19,3.447-5.888,5.228-4.3,7.886-5.315,8.73-3.767,1.779-.821,1.185-1.449,1.239-1.41v-.995Z" transform="translate(252.527 39.349)" fill="#bfdef8"></path><path id="Trazado_9304" data-name="Trazado 9304" d="M1104.765,157.025l2.027.888,2.9.021,1.729-2.449-.121-2.433-2.188-1.1-4.072-1.832-.519-3.929-2.057.08-1.68-.364-5.135-1.937-4.859,1.718L1085.6,148l-3.564,4.487-.584.734-.83.339-4.981-.023-4.931-1.678-5.743-3-6.75.774-1.928,1.438-1.468,1.69-1.01.446,4.574,1.152-.528,5.287.451,3.532,0,1.3,4.268-.453,11.9,2.382,5.06,4.908v8.645l-2.222,2.735-4.656.736.3,1.029,2.064.905a2,2,0,0,1,.923-.507,2.964,2.964,0,0,1,2.6.933l1.956,1.723,1.26,1.391,1.508,1.045h9.015l.4,3.015,1.91-1.04,1.905-1.166,1.739-1.3,4.518-4.5,4.389-4.705,2.328-6.269-2.045-6.425-2.284-2.454-1.851-2.725-1.129-2.286.643-2.366Z" transform="translate(262.983 35.663)" fill="#bfdef8"></path><path id="Trazado_9305" data-name="Trazado 9305" d="M867.807,137.128l-.849,4.247.01,24.729-.916,3.753a.7.7,0,0,1-.07.171l-1.9,3.263h.115v2.526l2.582.57,1.166,3.087v3.4l-1.874,2.489v2.713l-1.1,2.221.524.792,3.6-1.877.428.685c.706,1.127,2.835,5.116,3.345,6.074l1.51.97,4.338-2.84,3.815.764,1.5,2.244h1.148l2.557-1.6,2.924.488v4.223h2.129l1.379-.921,3.352-.168,5.376.238-.007.171,4.254-1.417,2.782-1.688,2.763-3.015-4.558-3.753a.647.647,0,0,1-.236-.456l-.273-3.529-7.762-4.025a.641.641,0,0,1-.271-.266l-3.295-5.991a.63.63,0,0,1-.08-.278l-.285-5.1-3.071-2.513a.649.649,0,0,1-.239-.545l.286-4.876-2.578-4.015a.652.652,0,0,1,.059-.786l4.383-4.969,1.459-6.129a.652.652,0,0,1,.229-.362l2.863-2.291,1.522-3.614-2.692-3.354-4.132-7.652-5.291-1.671L877.4,128.986l-4.943,4.653Z" transform="translate(121.103 23.157)" fill="#bfdef8"></path><path id="Trazado_9306" data-name="Trazado 9306" d="M868.044,228.3l0-.014-.006,0Z" transform="translate(124.065 98.715)" fill="#fff"></path><path id="Trazado_9307" data-name="Trazado 9307" d="M868.054,245.3l.1-.093c-.03-.014-.066-.037-.1-.052Z" transform="translate(124.076 111.329)" fill="#fff"></path><path id="Trazado_9308" data-name="Trazado 9308" d="M1045.2,191.406l.808-.312-.825.266Z" transform="translate(256.526 70.905)" fill="#fff"></path><path id="Trazado_9309" data-name="Trazado 9309" d="M782.253,153.344l.1.259.805-.339h0Z" transform="translate(59.915 42.615)" fill="#fff"></path></g><line id="Lnea_115" data-name="Lnea 115" y2="91" transform="translate(752.5 1528.5)" fill="none" stroke="#89abdb" stroke-width="1"></line><line id="Lnea_116" data-name="Lnea 116" x2="242" transform="translate(758.5 1528.5)" fill="none" stroke="#89abdb" stroke-width="1"></line><path id="Trazado_9311" data-name="Trazado 9311" d="M1192.447,7365.193s-10.6-8.465-10.6-16.194a10.6,10.6,0,0,1,21.2,0C1203.047,7356.729,1192.447,7365.193,1192.447,7365.193Z" transform="translate(-602.047 -6234.445)" fill="#0a942f"></path><path id="Trazado_9313" data-name="Trazado 9313" d="M1192.447,7365.193s-10.6-8.465-10.6-16.194a10.6,10.6,0,0,1,21.2,0C1203.047,7356.729,1192.447,7365.193,1192.447,7365.193Z" transform="translate(-578.047 -6066.445)" fill="#0a942f"></path><path id="Trazado_9314" data-name="Trazado 9314" d="M1192.447,7365.193s-10.6-8.465-10.6-16.194a10.6,10.6,0,0,1,21.2,0C1203.047,7356.729,1192.447,7365.193,1192.447,7365.193Z" transform="translate(-505.047 -6028.445)" fill="#0a942f"></path><path id="Trazado_9320" data-name="Trazado 9320" d="M1192.447,7365.193s-10.6-8.465-10.6-16.194a10.6,10.6,0,0,1,21.2,0C1203.047,7356.729,1192.447,7365.193,1192.447,7365.193Z" transform="translate(-429.347 -5985.693)" fill="#0a942f"></path><path id="Trazado_9321" data-name="Trazado 9321" d="M1192.447,7365.193s-10.6-8.465-10.6-16.194a10.6,10.6,0,0,1,21.2,0C1203.047,7356.729,1192.447,7365.193,1192.447,7365.193Z" transform="translate(-423.347 -5933.443)" fill="#0a942f"></path><path id="Trazado_9333" data-name="Trazado 9333" d="M1192.447,7365.193s-10.6-8.465-10.6-16.194a10.6,10.6,0,0,1,21.2,0C1203.047,7356.729,1192.447,7365.193,1192.447,7365.193Z" transform="translate(-272.347 -5939.693)" fill="#0a942f"></path><path id="Trazado_9334" data-name="Trazado 9334" d="M1192.447,7365.193s-10.6-8.465-10.6-16.194a10.6,10.6,0,0,1,21.2,0C1203.047,7356.729,1192.447,7365.193,1192.447,7365.193Z" transform="translate(-357.547 -5769.943)" fill="#0a942f"></path><path id="Trazado_9335" data-name="Trazado 9335" d="M1192.447,7365.193s-10.6-8.465-10.6-16.194a10.6,10.6,0,0,1,21.2,0C1203.047,7356.729,1192.447,7365.193,1192.447,7365.193Z" transform="translate(-247.547 -5775.193)" fill="#0a942f"></path><path id="Trazado_9322" data-name="Trazado 9322" d="M1192.447,7365.193s-10.6-8.465-10.6-16.194a10.6,10.6,0,0,1,21.2,0C1203.047,7356.729,1192.447,7365.193,1192.447,7365.193Z" transform="translate(-402.147 -6041.695)" fill="#0a942f"></path><path id="Trazado_9323" data-name="Trazado 9323" d="M1192.447,7365.193s-10.6-8.465-10.6-16.194a10.6,10.6,0,0,1,21.2,0C1203.047,7356.729,1192.447,7365.193,1192.447,7365.193Z" transform="translate(-363.147 -6100.695)" fill="#0a942f"></path><path id="Trazado_9315" data-name="Trazado 9315" d="M1192.447,7365.193s-10.6-8.465-10.6-16.194a10.6,10.6,0,0,1,21.2,0C1203.047,7356.729,1192.447,7365.193,1192.447,7365.193Z" transform="translate(-603.047 -6015.195)" fill="#0a942f"></path><path id="Trazado_9316" data-name="Trazado 9316" d="M1192.447,7365.193s-10.6-8.465-10.6-16.194a10.6,10.6,0,0,1,21.2,0C1203.047,7356.729,1192.447,7365.193,1192.447,7365.193Z" transform="translate(-696.047 -6008.195)" fill="#0a942f"></path><path id="Trazado_9317" data-name="Trazado 9317" d="M1192.447,7365.193s-10.6-8.465-10.6-16.194a10.6,10.6,0,0,1,21.2,0C1203.047,7356.729,1192.447,7365.193,1192.447,7365.193Z" transform="translate(-701.047 -5943.195)" fill="#0a942f"></path><path id="Trazado_9318" data-name="Trazado 9318" d="M1192.447,7365.193s-10.6-8.465-10.6-16.194a10.6,10.6,0,0,1,21.2,0C1203.047,7356.729,1192.447,7365.193,1192.447,7365.193Z" transform="translate(-588.647 -5956.445)" fill="#0a942f"></path><path id="Trazado_9324" data-name="Trazado 9324" d="M1192.447,7365.193s-10.6-8.465-10.6-16.194a10.6,10.6,0,0,1,21.2,0C1203.047,7356.729,1192.447,7365.193,1192.447,7365.193Z" transform="translate(-636.647 -5909.445)" fill="#0a942f"></path><path id="Trazado_9325" data-name="Trazado 9325" d="M1192.447,7365.193s-10.6-8.465-10.6-16.194a10.6,10.6,0,0,1,21.2,0C1203.047,7356.729,1192.447,7365.193,1192.447,7365.193Z" transform="translate(-682.647 -5870.445)" fill="#0a942f"></path><path id="Trazado_9327" data-name="Trazado 9327" d="M1192.447,7365.193s-10.6-8.465-10.6-16.194a10.6,10.6,0,0,1,21.2,0C1203.047,7356.729,1192.447,7365.193,1192.447,7365.193Z" transform="translate(-690.447 -5814.445)" fill="#0a942f"></path><path id="Trazado_9328" data-name="Trazado 9328" d="M1192.447,7365.193s-10.6-8.465-10.6-16.194a10.6,10.6,0,0,1,21.2,0C1203.047,7356.729,1192.447,7365.193,1192.447,7365.193Z" transform="translate(-629.447 -5831.193)" fill="#0a942f"></path><path id="Trazado_9329" data-name="Trazado 9329" d="M1192.447,7365.193s-10.6-8.465-10.6-16.194a10.6,10.6,0,0,1,21.2,0C1203.047,7356.729,1192.447,7365.193,1192.447,7365.193Z" transform="translate(-567.847 -5853.693)" fill="#0a942f"></path><path id="Trazado_9330" data-name="Trazado 9330" d="M1192.447,7365.193s-10.6-8.465-10.6-16.194a10.6,10.6,0,0,1,21.2,0C1203.047,7356.729,1192.447,7365.193,1192.447,7365.193Z" transform="translate(-511.447 -5850.941)" fill="#0a942f"></path><path id="Trazado_9331" data-name="Trazado 9331" d="M1192.447,7365.193s-10.6-8.465-10.6-16.194a10.6,10.6,0,0,1,21.2,0C1203.047,7356.729,1192.447,7365.193,1192.447,7365.193Z" transform="translate(-467.447 -5896.195)" fill="#0a942f"></path><path id="Trazado_9332" data-name="Trazado 9332" d="M1192.447,7365.193s-10.6-8.465-10.6-16.194a10.6,10.6,0,0,1,21.2,0C1203.047,7356.729,1192.447,7365.193,1192.447,7365.193Z" transform="translate(-565.247 -5907.443)" fill="#0a942f"></path><path id="Trazado_9326" data-name="Trazado 9326" d="M1192.447,7365.193s-10.6-8.465-10.6-16.194a10.6,10.6,0,0,1,21.2,0C1203.047,7356.729,1192.447,7365.193,1192.447,7365.193Z" transform="translate(-736.647 -5883.695)" fill="#0a942f"></path><path id="Trazado_9319" data-name="Trazado 9319" d="M1192.447,7365.193s-10.6-8.465-10.6-16.194a10.6,10.6,0,0,1,21.2,0C1203.047,7356.729,1192.447,7365.193,1192.447,7365.193Z" transform="translate(-490.647 -5952.943)" fill="#0a942f"></path><path id="Trazado_9312" data-name="Trazado 9312" d="M1192.447,7365.193s-10.6-8.465-10.6-16.194a10.6,10.6,0,0,1,21.2,0C1203.047,7356.729,1192.447,7365.193,1192.447,7365.193Z" transform="translate(-529.447 -6238.693)" fill="#0a942f"></path><text id="_20" data-name="20" transform="translate(590 1118)" fill="#fff" font-size="10" font-family="Karla" font-weight="700"><tspan x="-6.188" y="0">20</tspan></text><text id="_24" data-name="24" transform="translate(614 1286)" fill="#fff" font-size="10" font-family="Karla" font-weight="700"><tspan x="-6.001" y="0">24</tspan></text><text id="_17" data-name="17" transform="translate(687 1324)" fill="#fff" font-size="10" font-family="Karla" font-weight="700"><tspan x="-4.271" y="0">17</tspan></text><text id="_23" data-name="23" transform="translate(762.7 1366.752)" fill="#fff" font-size="10" font-family="Karla" font-weight="700"><tspan x="-6.135" y="0">23</tspan></text><text id="_22" data-name="22" transform="translate(768.7 1419.002)" fill="#fff" font-size="10" font-family="Karla" font-weight="700"><tspan x="-6.051" y="0">22</tspan></text><text id="_11" data-name="11" transform="translate(919.7 1412.752)" fill="#fff" font-size="10" font-family="Karla" font-weight="700"><tspan x="-3.566" y="0">11</tspan></text><text id="_13" data-name="13" transform="translate(834.5 1582.502)" fill="#fff" font-size="10" font-family="Karla" font-weight="700"><tspan x="-4.893" y="0">13</tspan></text><text id="_12" data-name="12" transform="translate(944.5 1577.252)" fill="#fff" font-size="10" font-family="Karla" font-weight="700"><tspan x="-4.809" y="0">12</tspan></text><text id="_21" data-name="21" transform="translate(789.9 1310.75)" fill="#fff" font-size="10" font-family="Karla" font-weight="700"><tspan x="-4.809" y="0">21</tspan></text><text id="_25" data-name="25" transform="translate(828.9 1251.75)" fill="#fff" font-size="10" font-family="Karla" font-weight="700"><tspan x="-5.936" y="0">25</tspan></text><text id="_19" data-name="19" transform="translate(589 1337.25)" fill="#fff" font-size="10" font-family="Karla" font-weight="700"><tspan x="-4.833" y="0">19</tspan></text><text id="_10" data-name="10" transform="translate(496 1344.25)" fill="#fff" font-size="10" font-family="Karla" font-weight="700"><tspan x="-4.946" y="0">10</tspan></text><text id="_9" data-name="9" transform="translate(491 1409.25)" fill="#fff" font-size="10" font-family="Karla" font-weight="700"><tspan x="-3.05" y="0">9</tspan></text><text id="_18" data-name="18" transform="translate(603.4 1396)" fill="#fff" font-size="10" font-family="Karla" font-weight="700"><tspan x="-5.015" y="0">18</tspan></text><text id="_7" data-name="7" transform="translate(555.4 1443)" fill="#fff" font-size="10" font-family="Karla" font-weight="700"><tspan x="-2.488" y="0">7</tspan></text><text id="_8" data-name="8" transform="translate(509.4 1482)" fill="#fff" font-size="10" font-family="Karla" font-weight="700"><tspan x="-3.232" y="0">8</tspan></text><text id="_6" data-name="6" transform="translate(501.6 1538)" fill="#fff" font-size="10" font-family="Karla" font-weight="700"><tspan x="-3.034" y="0">6</tspan></text><text id="_4" data-name="4" transform="translate(562.6 1521.252)" fill="#fff" font-size="10" font-family="Karla" font-weight="700"><tspan x="-2.975" y="0">4</tspan></text><text id="_2" data-name="2" transform="translate(624.2 1498.752)" fill="#fff" font-size="10" font-family="Karla" font-weight="700"><tspan x="-3.026" y="0">2</tspan></text><text id="_1" data-name="1" transform="translate(680.6 1501.504)" fill="#fff" font-size="10" font-family="Karla" font-weight="700"><tspan x="-1.783" y="0">1</tspan></text><text id="_15" data-name="15" transform="translate(724.6 1456.25)" fill="#fff" font-size="10" font-family="Karla" font-weight="700"><tspan x="-4.693" y="0">15</tspan></text><text id="_3" data-name="3" transform="translate(626.8 1445.002)" fill="#fff" font-size="10" font-family="Karla" font-weight="700"><tspan x="-3.11" y="0">3</tspan></text><text id="_5" data-name="5" transform="translate(455.4 1468.75)" fill="#fff" font-size="10" font-family="Karla" font-weight="700"><tspan x="-2.91" y="0">5</tspan></text><text id="_16" data-name="16" transform="translate(701.4 1399.502)" fill="#fff" font-size="10" font-family="Karla" font-weight="700"><tspan x="-4.817" y="0">16</tspan></text><text id="_14" data-name="14" transform="translate(663 1114)" fill="#fff" font-size="10" font-family="Karla" font-weight="700"><tspan x="-4.758" y="0">14</tspan></text></g></svg> 