<?xml version="1.0" encoding="UTF-8"?> <svg xmlns="http://www.w3.org/2000/svg" width="402" height="452" viewBox="0 0 402 452"><g id="Grupo_1448" data-name="Grupo 1448" transform="translate(-1047 -1983)"><text id="Europa" transform="translate(1048 1983)" fill="#2860ad" font-size="20" font-family="Montserrat-Bold, Montserrat" font-weight="700"><tspan x="0" y="19">Europa</tspan></text><text id="África" transform="translate(1247 1983)" fill="#2860ad" font-size="20" font-family="Montserrat-Bold, Montserrat" font-weight="700"><tspan x="0" y="19">África</tspan></text><text id="Asia" transform="translate(1048 2221)" fill="#2860ad" font-size="20" font-family="Montserrat-Bold, Montserrat" font-weight="700"><tspan x="0" y="19">Asia</tspan></text><text id="América" transform="translate(1247 2146)" fill="#2860ad" font-size="20" font-family="Montserrat-Bold, Montserrat" font-weight="700"><tspan x="0" y="19">América</tspan></text><text id="Portugal_Inglaterra_Francia_Grecia_Rusia_Rumanía_Ucrania" data-name="Portugal Inglaterra Francia Grecia Rusia Rumanía Ucrania" transform="translate(1068 2028)" fill="#2860ad" font-size="15" font-family="Montserrat-Regular, Montserrat"><tspan x="0" y="15">Portugal</tspan><tspan x="0" y="40">Inglaterra</tspan><tspan x="0" y="65">Francia</tspan><tspan x="0" y="90">Grecia</tspan><tspan x="0" y="115">Rusia</tspan><tspan x="0" y="140">Rumanía</tspan><tspan x="0" y="165">Ucrania</tspan></text><text id="Sudáfrica_Islas_Reunión_Senegal_Marruecos" data-name="Sudáfrica Islas Reunión Senegal Marruecos" transform="translate(1267 2028)" fill="#2860ad" font-size="15" font-family="Montserrat-Regular, Montserrat"><tspan x="0" y="15">Sudáfrica</tspan><tspan x="0" y="40">Islas Reunión</tspan><tspan x="0" y="65">Senegal</tspan><tspan x="0" y="90">Marruecos</tspan></text><text id="Qatar_Irán_India_China_Líbano_Emiratos_Árabes" data-name="Qatar Irán India China Líbano Emiratos Árabes" transform="translate(1068 2266)" fill="#2860ad" font-size="15" font-family="Montserrat-Regular, Montserrat"><tspan x="0" y="15">Qatar</tspan><tspan x="0" y="40">Irán</tspan><tspan x="0" y="65">India</tspan><tspan x="0" y="90">China</tspan><tspan x="0" y="115">Líbano</tspan><tspan x="0" y="140">Emiratos Árabes</tspan></text><text id="México_Rep._Dominicana_Puerto_Rico_Venezuela_Brasil_Perú_Panamá_Uruguay_Estados_Unidos_Canadá" data-name="México Rep. Dominicana Puerto Rico Venezuela Brasil Perú Panamá Uruguay Estados Unidos Canadá" transform="translate(1267 2191)" fill="#2860ad" font-size="15" font-family="Montserrat-Regular, Montserrat"><tspan x="0" y="15">México</tspan><tspan x="0" y="40">Rep. Dominicana</tspan><tspan x="0" y="65">Puerto Rico</tspan><tspan x="0" y="90">Venezuela</tspan><tspan x="0" y="115">Brasil</tspan><tspan x="0" y="140">Perú</tspan><tspan x="0" y="165">Panamá</tspan><tspan x="0" y="190">Uruguay</tspan><tspan x="0" y="215">Estados Unidos</tspan><tspan x="0" y="240">Canadá</tspan></text><circle id="Elipse_368" data-name="Elipse 368" cx="8" cy="8" r="8" transform="translate(1048 2030)" fill="#0a942f"></circle><circle id="Elipse_379" data-name="Elipse 379" cx="8" cy="8" r="8" transform="translate(1247 2030)" fill="#0a942f"></circle><circle id="Elipse_383" data-name="Elipse 383" cx="8" cy="8" r="8" transform="translate(1247 2192)" fill="#0a942f"></circle><circle id="Elipse_387" data-name="Elipse 387" cx="8" cy="8" r="8" transform="translate(1247 2292)" fill="#0a942f"></circle><circle id="Elipse_374" data-name="Elipse 374" cx="8" cy="8" r="8" transform="translate(1048 2268)" fill="#0a942f"></circle><circle id="Elipse_369" data-name="Elipse 369" cx="8" cy="8" r="8" transform="translate(1048 2055)" fill="#0a942f"></circle><circle id="Elipse_380" data-name="Elipse 380" cx="8" cy="8" r="8" transform="translate(1247 2055)" fill="#0a942f"></circle><circle id="Elipse_384" data-name="Elipse 384" cx="8" cy="8" r="8" transform="translate(1247 2217)" fill="#0a942f"></circle><circle id="Elipse_388" data-name="Elipse 388" cx="8" cy="8" r="8" transform="translate(1247 2317)" fill="#0a942f"></circle><circle id="Elipse_375" data-name="Elipse 375" cx="8" cy="8" r="8" transform="translate(1048 2293)" fill="#0a942f"></circle><circle id="Elipse_370" data-name="Elipse 370" cx="8" cy="8" r="8" transform="translate(1048 2080)" fill="#0a942f"></circle><circle id="Elipse_381" data-name="Elipse 381" cx="8" cy="8" r="8" transform="translate(1247 2080)" fill="#0a942f"></circle><circle id="Elipse_385" data-name="Elipse 385" cx="8" cy="8" r="8" transform="translate(1247 2242)" fill="#0a942f"></circle><circle id="Elipse_389" data-name="Elipse 389" cx="8" cy="8" r="8" transform="translate(1247 2342)" fill="#0a942f"></circle><circle id="Elipse_376" data-name="Elipse 376" cx="8" cy="8" r="8" transform="translate(1048 2318)" fill="#0a942f"></circle><circle id="Elipse_371" data-name="Elipse 371" cx="8" cy="8" r="8" transform="translate(1048 2105)" fill="#0a942f"></circle><circle id="Elipse_382" data-name="Elipse 382" cx="8" cy="8" r="8" transform="translate(1247 2105)" fill="#0a942f"></circle><circle id="Elipse_386" data-name="Elipse 386" cx="8" cy="8" r="8" transform="translate(1247 2267)" fill="#0a942f"></circle><circle id="Elipse_377" data-name="Elipse 377" cx="8" cy="8" r="8" transform="translate(1048 2343)" fill="#0a942f"></circle><circle id="Elipse_372" data-name="Elipse 372" cx="8" cy="8" r="8" transform="translate(1048 2130)" fill="#0a942f"></circle><circle id="Elipse_378" data-name="Elipse 378" cx="8" cy="8" r="8" transform="translate(1048 2368)" fill="#0a942f"></circle><circle id="Elipse_448" data-name="Elipse 448" cx="8" cy="8" r="8" transform="translate(1048 2393)" fill="#0a942f"></circle><circle id="Elipse_373" data-name="Elipse 373" cx="8" cy="8" r="8" transform="translate(1048 2155)" fill="#0a942f"></circle><circle id="Elipse_449" data-name="Elipse 449" cx="8" cy="8" r="8" transform="translate(1048 2180)" fill="#0a942f"></circle><text id="_1" data-name="1" transform="translate(1056 2042)" fill="#fff" font-size="10" font-family="Karla" font-weight="700"><tspan x="-1.783" y="0">1</tspan></text><text id="_14" data-name="14" transform="translate(1255 2042)" fill="#fff" font-size="10" font-family="Karla" font-weight="700"><tspan x="-4.758" y="0">14</tspan></text><text id="_18" data-name="18" transform="translate(1255 2204)" fill="#fff" font-size="10" font-family="Karla" font-weight="700"><tspan x="-5.015" y="0">18</tspan></text><text id="_22" data-name="22" transform="translate(1255 2304)" fill="#fff" font-size="10" font-family="Karla" font-weight="700"><tspan x="-6.05" y="0">22</tspan></text><text id="_8" data-name="8" transform="translate(1056 2280)" fill="#fff" font-size="10" font-family="Karla" font-weight="700"><tspan x="-3.233" y="0">8</tspan></text><text id="_2" data-name="2" transform="translate(1056 2067)" fill="#fff" font-size="10" font-family="Karla" font-weight="700"><tspan x="-3.025" y="0">2</tspan></text><text id="_15" data-name="15" transform="translate(1255 2067)" fill="#fff" font-size="10" font-family="Karla" font-weight="700"><tspan x="-4.693" y="0">15</tspan></text><text id="_19" data-name="19" transform="translate(1255 2229)" fill="#fff" font-size="10" font-family="Karla" font-weight="700"><tspan x="-4.832" y="0">19</tspan></text><text id="_23" data-name="23" transform="translate(1255 2329)" fill="#fff" font-size="10" font-family="Karla" font-weight="700"><tspan x="-6.135" y="0">23</tspan></text><text id="_9" data-name="9" transform="translate(1056 2305)" fill="#fff" font-size="10" font-family="Karla" font-weight="700"><tspan x="-3.05" y="0">9</tspan></text><text id="_3" data-name="3" transform="translate(1056 2092)" fill="#fff" font-size="10" font-family="Karla" font-weight="700"><tspan x="-3.11" y="0">3</tspan></text><text id="_16" data-name="16" transform="translate(1255 2092)" fill="#fff" font-size="10" font-family="Karla" font-weight="700"><tspan x="-4.818" y="0">16</tspan></text><text id="_20" data-name="20" transform="translate(1255 2254)" fill="#fff" font-size="10" font-family="Karla" font-weight="700"><tspan x="-6.188" y="0">20</tspan></text><text id="_24" data-name="24" transform="translate(1255 2354)" fill="#fff" font-size="10" font-family="Karla" font-weight="700"><tspan x="-6" y="0">24</tspan></text><text id="_10" data-name="10" transform="translate(1056 2330)" fill="#fff" font-size="10" font-family="Karla" font-weight="700"><tspan x="-4.945" y="0">10</tspan></text><text id="_4" data-name="4" transform="translate(1056 2117)" fill="#fff" font-size="10" font-family="Karla" font-weight="700"><tspan x="-2.975" y="0">4</tspan></text><text id="_17" data-name="17" transform="translate(1255 2117)" fill="#fff" font-size="10" font-family="Karla" font-weight="700"><tspan x="-4.27" y="0">17</tspan></text><text id="_21" data-name="21" transform="translate(1255 2279)" fill="#fff" font-size="10" font-family="Karla" font-weight="700"><tspan x="-4.807" y="0">21</tspan></text><g id="Grupo_1443" data-name="Grupo 1443" transform="translate(0 -2)"><circle id="Elipse_390" data-name="Elipse 390" cx="8" cy="8" r="8" transform="translate(1247 2369)" fill="#0a942f"></circle><text id="_25" data-name="25" transform="translate(1255 2381)" fill="#fff" font-size="10" font-family="Karla" font-weight="700"><tspan x="-5.935" y="0">25</tspan></text></g><g id="Grupo_1444" data-name="Grupo 1444" transform="translate(0 24)"><circle id="Elipse_390-2" data-name="Elipse 390" cx="8" cy="8" r="8" transform="translate(1247 2369)" fill="#0a942f"></circle><text id="_26" data-name="26" transform="translate(1255 2381)" fill="#fff" font-size="10" font-family="Karla" font-weight="700"><tspan x="-6.06" y="0">26</tspan></text></g><g id="Grupo_1446" data-name="Grupo 1446" transform="translate(0 50)"><circle id="Elipse_390-3" data-name="Elipse 390" cx="8" cy="8" r="8" transform="translate(1247 2369)" fill="#0a942f"></circle><text id="_27" data-name="27" transform="translate(1255 2381)" fill="#fff" font-size="10" font-family="Karla" font-weight="700"><tspan x="-5.513" y="0">27</tspan></text></g><text id="_11" data-name="11" transform="translate(1056 2355)" fill="#fff" font-size="10" font-family="Karla" font-weight="700"><tspan x="-3.565" y="0">11</tspan></text><text id="_5" data-name="5" transform="translate(1056 2142)" fill="#fff" font-size="10" font-family="Karla" font-weight="700"><tspan x="-2.91" y="0">5</tspan></text><text id="_12" data-name="12" transform="translate(1056 2380)" fill="#fff" font-size="10" font-family="Karla" font-weight="700"><tspan x="-4.807" y="0">12</tspan></text><text id="_13" data-name="13" transform="translate(1056 2405)" fill="#fff" font-size="10" font-family="Karla" font-weight="700"><tspan x="-4.892" y="0">13</tspan></text><text id="_6" data-name="6" transform="translate(1056 2167)" fill="#fff" font-size="10" font-family="Karla" font-weight="700"><tspan x="-3.035" y="0">6</tspan></text><text id="_7" data-name="7" transform="translate(1056 2192)" fill="#fff" font-size="10" font-family="Karla" font-weight="700"><tspan x="-2.487" y="0">7</tspan></text></g></svg> 