<?xml version="1.0" encoding="UTF-8"?> <svg xmlns="http://www.w3.org/2000/svg" width="33.687" height="33.687" viewBox="0 0 33.687 33.687"><defs><style>.a{fill:#00891a;}.b,.c{fill:none;stroke:#fff;stroke-linecap:round;stroke-width:1.5px;}.b{stroke-linejoin:round;}</style></defs><g transform="translate(-977.088 -3191)"><circle class="a" cx="16.844" cy="16.844" r="16.844" transform="translate(977.088 3191)"></circle><g transform="translate(69.754 27)"><g transform="translate(913.334 3183.82) rotate(-34)"><path class="b" d="M1181.047,9924.7h-2a1,1,0,0,0-1,1v6a1,1,0,0,0,1,1h2a1,1,0,0,0,1-1v-6A1,1,0,0,0,1181.047,9924.7Z" transform="translate(-1178.047 -9924.695)"></path><path class="b" d="M1188.047,9930.082h2.333a2,2,0,0,1,1.2.4l2.416,1.812a1.515,1.515,0,0,0,1.98-.141h0a1.513,1.513,0,0,0,0-2.142l-2.073-2.073a3.994,3.994,0,0,0-2.044-1.094l-2.93-.586a3.988,3.988,0,0,0-1.755.042l-2.65.661a3.954,3.954,0,0,1-.969.12h-1.508" transform="translate(-1178.047 -9926.082)"></path><path class="b" d="M1188.047,9924.7h1.485a1.515,1.515,0,0,1,1.515,1.516v.3a1.513,1.513,0,0,1-1.147,1.469l-2.292.573a4.716,4.716,0,0,1-1.139.14h0a4.685,4.685,0,0,1-2.6-.789l-1.817-1.211" transform="translate(-1178.047 -9920.695)"></path></g><path class="c" d="M7480.167,9315v14.167" transform="translate(-6546 -6143)"></path></g></g></svg> 