<?xml version="1.0" encoding="UTF-8"?> <svg xmlns="http://www.w3.org/2000/svg" width="33.687" height="33.687" viewBox="0 0 33.687 33.687"><defs><style>.a{fill:#00891a;}.b{fill:none;stroke:#fff;stroke-linecap:round;stroke-linejoin:round;stroke-width:1.5px;}</style></defs><g transform="translate(-977.088 -3291)"><circle class="a" cx="16.844" cy="16.844" r="16.844" transform="translate(977.088 3291)"></circle><g transform="translate(107.09 -82)"><g transform="translate(263.848 1418.305)"><circle class="b" cx="3" cy="3" r="3" transform="translate(620.152 1968.695)"></circle><path class="b" d="M627.332,1978.42h0a1.29,1.29,0,0,0,1.823,0l.723-.723a1.29,1.29,0,0,0,0-1.823h0a1.322,1.322,0,0,1-.283-1.453c.022-.053.044-.106.065-.16a1.217,1.217,0,0,1,1.137-.766h.067a1.29,1.29,0,0,0,1.289-1.29v-1.021a1.289,1.289,0,0,0-1.289-1.289H630.8a1.218,1.218,0,0,1-1.137-.767c-.021-.053-.043-.107-.065-.16a1.322,1.322,0,0,1,.283-1.453h0a1.29,1.29,0,0,0,0-1.823l-.723-.722a1.288,1.288,0,0,0-1.823,0h0a1.324,1.324,0,0,1-1.453.284c-.053-.023-.107-.045-.16-.066a1.218,1.218,0,0,1-.767-1.137v-.067a1.289,1.289,0,0,0-1.289-1.289h-1.021a1.29,1.29,0,0,0-1.29,1.289v.067a1.217,1.217,0,0,1-.766,1.137c-.053.021-.107.043-.16.066a1.324,1.324,0,0,1-1.453-.284h0a1.288,1.288,0,0,0-1.823,0l-.723.722a1.29,1.29,0,0,0,0,1.823h0a1.322,1.322,0,0,1,.284,1.453c-.022.053-.044.107-.065.16a1.218,1.218,0,0,1-1.137.767h-.067a1.29,1.29,0,0,0-1.29,1.289v1.021a1.291,1.291,0,0,0,1.29,1.29h.067a1.217,1.217,0,0,1,1.137.766c.021.054.043.107.065.16a1.322,1.322,0,0,1-.284,1.453h0a1.29,1.29,0,0,0,0,1.823l.723.723a1.29,1.29,0,0,0,1.823,0h0a1.324,1.324,0,0,1,1.453-.284l.16.065a1.217,1.217,0,0,1,.766,1.137v.067a1.291,1.291,0,0,0,1.29,1.29h1.021a1.29,1.29,0,0,0,1.289-1.29v-.067a1.218,1.218,0,0,1,.767-1.137l.16-.065A1.324,1.324,0,0,1,627.332,1978.42Z"></path></g></g></g></svg> 