<?xml version="1.0" encoding="UTF-8"?> <svg xmlns="http://www.w3.org/2000/svg" width="33.687" height="33.687" viewBox="0 0 33.687 33.687"><defs><style>.a{fill:#00891a;}.b{fill:none;stroke:#fff;stroke-linecap:round;stroke-linejoin:round;stroke-width:1.5px;}</style></defs><g transform="translate(-977.088 -3392)"><circle class="a" cx="16.844" cy="16.844" r="16.844" transform="translate(977.088 3392)"></circle><g transform="translate(-304.959 -2986.695)"><path class="b" d="M1306.047,6400.695h-3.465a1,1,0,0,0-.832.445l-.406.609a1,1,0,0,1-.832.445h-4.93a1,1,0,0,1-.832-.445l-.406-.609a1,1,0,0,0-.833-.445h-3.464a1,1,0,0,0-1,1v1a2,2,0,0,0,2,2h14a2,2,0,0,0,2-2v-1A1,1,0,0,0,1306.047,6400.695Z"></path><path class="b" d="M1298.047,6388.695h-6.222a1.684,1.684,0,0,0-1.778,1.571v10.429"></path><path class="b" d="M1306.047,6400.695v-4"></path><line class="b" x2="2.247" y2="2.31" transform="translate(1306.8 6392.384)"></line><circle class="b" cx="3.333" cy="3.333" r="3.333" transform="translate(1301.11 6386.695)"></circle></g></g></svg> 