<?xml version="1.0" encoding="UTF-8"?> <svg xmlns="http://www.w3.org/2000/svg" width="33.687" height="33.687" viewBox="0 0 33.687 33.687"><defs><style>.a{fill:#00891a;}.b{fill:none;stroke:#fff;stroke-linecap:round;stroke-linejoin:round;stroke-width:1.5px;}</style></defs><g transform="translate(-977.088 -3441)"><circle class="a" cx="16.844" cy="16.844" r="16.844" transform="translate(977.088 3441)"></circle><g transform="translate(-304.959 -4616.695)"><path class="b" d="M1307.047,8069.705v6.99"></path><path class="b" d="M1308.047,8082.695h-6"></path><path class="b" d="M1306.047,8080.695l2,2-2,2"></path><path class="b" d="M1298.047,8080.695h-6a2,2,0,0,1-2-2v-8.99"></path><path class="b" d="M1292.058,8067.695h12.978a2.011,2.011,0,0,1,2.011,2.01h0a2.012,2.012,0,0,1-.883,1.665l-5.357,3.63a4.028,4.028,0,0,1-4.522,0l-5.355-3.63a2.01,2.01,0,0,1-.883-1.664h0A2.011,2.011,0,0,1,1292.058,8067.695Z"></path></g></g></svg> 