<?xml version="1.0" encoding="UTF-8"?> <svg xmlns="http://www.w3.org/2000/svg" width="33.687" height="33.687" viewBox="0 0 33.687 33.687"><defs><style>.a{fill:#00891a;}.b{fill:none;stroke:#fff;stroke-linecap:round;stroke-linejoin:round;stroke-width:1.5px;}</style></defs><g transform="translate(-977.088 -3539)"><circle class="a" cx="16.844" cy="16.844" r="16.844" transform="translate(977.088 3539)"></circle><g transform="translate(139.088 43.844)"><g transform="translate(-332.047 -7027.695)"><path class="b" d="M1191.449,10537.2h-.9a2.5,2.5,0,0,0-2.5,2.5h0a2.5,2.5,0,0,0,2.5,2.5h.937a.313.313,0,0,0,.313-.313v-2.187h-.972"></path><path class="b" d="M1184.963,10542.445v-1.255H1182.6a.548.548,0,0,1-.478-.822c.591-1.018,1.275-2.168,1.9-3.184a.509.509,0,0,1,.94.272v3.733"></path><line class="b" x2="3" transform="translate(1194.547 10539.694)"></line><line class="b" y2="3" transform="translate(1196.047 10538.194)"></line><path class="b" d="M1193.411,10546.059a9,9,0,1,1,0-12.728"></path></g></g></g></svg> 