<?xml version="1.0" encoding="UTF-8"?> <svg xmlns="http://www.w3.org/2000/svg" width="108" height="108" viewBox="0 0 108 108"><defs><style>.a{fill:#fff;}.b{fill:none;stroke:#2860ad;stroke-linecap:round;stroke-linejoin:round;stroke-width:3px;}</style></defs><g transform="translate(-654 -1485)"><circle class="a" cx="54" cy="54" r="54" transform="translate(654 1485)"></circle><g transform="translate(689.778 1516.757)"><path class="b" d="M2584.658,14075.267l-7.542-7.544a5.348,5.348,0,0,0-3.771-1.562h-19.127a5.332,5.332,0,0,0-5.334,5.336v37.338a5.331,5.331,0,0,0,5.334,5.331h26.669a5.33,5.33,0,0,0,5.334-5.331v-29.794A5.341,5.341,0,0,0,2584.658,14075.267Z" transform="translate(-2548.884 -14066.16)"></path><path class="b" d="M2571.219,14079.5h-10.667a2.668,2.668,0,0,1-2.667-2.667v-10.668" transform="translate(-2533.881 -14066.16)"></path><path class="b" d="M2553.384,14080.161h13.335" transform="translate(-2541.383 -14042.824)"></path><g transform="translate(13.335 22.669)"><path class="b" d="M2564.552,14074.656l-6.667,6.67-4-4" transform="translate(-2553.884 -14074.656)"></path></g></g></g></svg> 