<?xml version="1.0" encoding="UTF-8"?> <svg xmlns="http://www.w3.org/2000/svg" width="108" height="108" viewBox="0 0 108 108"><defs><style>.a{fill:#fff;}.b{fill:none;stroke:#375fa8;stroke-linecap:round;stroke-linejoin:round;stroke-width:3px;}</style></defs><g transform="translate(-205 -1559)"><g transform="translate(-449 74)"><circle class="a" cx="54" cy="54" r="54" transform="translate(654 1485)"></circle></g><g transform="translate(20177.873 19530.121)"><path class="b" d="M5.127,22.475V22a19,19,0,0,1,19-19h0a19,19,0,0,1,19,19v.475c0,9.568-12.114,23.97-17,29.388a2.69,2.69,0,0,1-4.008,0c-4.882-5.418-17-19.821-17-29.388Z" transform="translate(-19943 -17945)"></path><path class="b" d="M10,13.549a5.527,5.527,0,0,0,5.529,5.529h0a5.527,5.527,0,0,0,5.529-5.529v-.1a5.527,5.527,0,0,0-5.529-5.529h0A5.527,5.527,0,0,0,10,13.447" transform="translate(-19934.4 -17936.324)"></path></g></g></svg> 