<?xml version="1.0" encoding="UTF-8"?> <svg xmlns="http://www.w3.org/2000/svg" width="33.687" height="33.687" viewBox="0 0 33.687 33.687"><defs><style>.a{fill:#00891a;}.b{fill:none;stroke:#fff;stroke-linecap:round;stroke-linejoin:round;stroke-width:1.5px;}</style></defs><g transform="translate(-388 -994)"><circle class="a" cx="16.844" cy="16.844" r="16.844" transform="translate(388 994)"></circle><g transform="translate(-162.152 -230.816)"><path class="b" d="M574.152,1250.816a2,2,0,0,0,2-2"></path><path class="b" d="M576.152,1248.816v-3"></path><path class="b" d="M574.152,1250.816h-5"></path><path class="b" d="M565.152,1232.816h-5a2,2,0,0,0-2,2v5"></path><path class="b" d="M558.152,1245.816h7l-2-2"></path><path class="b" d="M565.152,1248.816h-7l2,2"></path><path class="b" d="M572.953,1233.218l2.4,3.206a4,4,0,0,1-3.2,6.392h0a4,4,0,0,1-3.2-6.392l2.4-3.206A1,1,0,0,1,572.953,1233.218Z"></path></g></g></svg> 