<?xml version="1.0" encoding="UTF-8"?> <svg xmlns="http://www.w3.org/2000/svg" width="108" height="108" viewBox="0 0 108 108"><defs><style>.a{fill:#fff;}.b,.c{fill:none;stroke:#375fa8;stroke-linecap:round;stroke-linejoin:round;stroke-width:3px;}.c{fill-rule:evenodd;}</style></defs><g transform="translate(-487 -1559)"><g transform="translate(-167 74)"><circle class="a" cx="54" cy="54" r="54" transform="translate(654 1485)"></circle></g><g transform="translate(20423.502 19475.768)"><path class="b" d="M4,24.881H4A9.84,9.84,0,0,1,13.8,15h5.792" transform="translate(-19907 -17870.355)"></path><path class="c" d="M13,19.851a10.542,10.542,0,0,0,2.784,6.641,17.835,17.835,0,0,0,4.729,3.884,4.849,4.849,0,0,0,4.97-.146,19.358,19.358,0,0,0,4.325-3.774,10.88,10.88,0,0,0,2.955-6.6,5.779,5.779,0,0,0-1.539-3.973,5.127,5.127,0,0,0-3.736-1.66,5.232,5.232,0,0,0-4.573,2.11l-.034.05-.034-.05a5.019,5.019,0,0,0-4.219-2.11A5.536,5.536,0,0,0,13,19.851Z" transform="translate(-19893.768 -17871.525)"></path><circle class="b" cx="10.499" cy="10.499" r="10.499" transform="translate(-19893.736 -17885)"></circle></g></g></svg> 