<?xml version="1.0" encoding="UTF-8"?> <svg xmlns="http://www.w3.org/2000/svg" width="33.687" height="33.687" viewBox="0 0 33.687 33.687"><defs><style>.a{fill:#00891a;}.b{fill:none;stroke:#fff;stroke-linecap:round;stroke-linejoin:round;stroke-width:1.5px;}</style></defs><g transform="translate(-388.089 -1145)"><circle class="a" cx="16.844" cy="16.844" r="16.844" transform="translate(388.089 1145)"></circle><g transform="translate(6.191 -79.223)"><circle class="b" cx="2.083" cy="2.083" r="2.083" transform="translate(392.069 1234.733)"></circle><line class="b" x1="0.49" transform="translate(389.152 1236.816)"></line><line class="b" x2="0.49" transform="translate(398.662 1236.816)"></line><line class="b" y2="0.49" transform="translate(394.152 1241.326)"></line><line class="b" y1="0.49" transform="translate(394.152 1231.816)"></line><line class="b" x1="0.347" y2="0.347" transform="translate(390.617 1240.005)"></line><line class="b" y1="0.347" x2="0.347" transform="translate(397.341 1233.281)"></line><line class="b" x2="0.347" y2="0.347" transform="translate(397.341 1240.005)"></line><line class="b" x1="0.347" y1="0.347" transform="translate(390.617 1233.281)"></line><path class="b" d="M390.226,1243.816l-.067.82a2.013,2.013,0,0,0,2,2.18h13.984a2.013,2.013,0,0,0,2-2.18l-.65-7.969a2.011,2.011,0,0,0-2-1.851h-4.343"></path><line class="b" x2="0.35" y2="3.5" transform="translate(401.301 1246.816)"></line><line class="b" y1="3.5" x2="0.35" transform="translate(396.651 1246.816)"></line><line class="b" x1="7.5" transform="translate(395.402 1250.316)"></line></g></g></svg> 