<?xml version="1.0" encoding="UTF-8"?> <svg xmlns="http://www.w3.org/2000/svg" width="33.687" height="33.687" viewBox="0 0 33.687 33.687"><defs><style>.a{fill:#00891a;}.b{fill:none;stroke:#fff;stroke-linecap:round;stroke-linejoin:round;stroke-width:1.5px;}</style></defs><g transform="translate(-388.089 -1195)"><circle class="a" cx="16.844" cy="16.844" r="16.844" transform="translate(388.089 1195)"></circle><g transform="translate(-14857.584 -14120.156)"><g transform="translate(14807.848 14090.184)"><path class="b" d="M455.08,1232.816a9,9,0,0,1,0,18"></path><path class="b" d="M452.005,1250.265a9,9,0,0,1-2.708-1.557"></path><path class="b" d="M449.3,1234.924a8.961,8.961,0,0,1,2.708-1.557"></path><path class="b" d="M446.224,1240.254a8.957,8.957,0,0,1,1.067-2.935"></path><path class="b" d="M446.224,1243.377a8.956,8.956,0,0,0,1.067,2.935"></path><path class="b" d="M459.152,1237.9a3,3,0,0,0-2.759-.455l-2.482.827a3,3,0,0,1-2.759-.454"></path><path class="b" d="M460.152,1241.868a3.75,3.75,0,0,0-3.449-.568l-3.1,1.034a3.749,3.749,0,0,1-3.448-.568"></path><path class="b" d="M459.152,1245.817a3,3,0,0,0-2.759-.455l-2.482.827a3,3,0,0,1-2.759-.454"></path></g></g></g></svg> 